<svg width="86" height="40" viewBox="0 0 86 40" fill="none" xmlns="http://www.w3.org/2000/svg">
<path d="M10.584 23.4336C10.584 23.7031 10.4375 23.9609 10.1445 24.207C9.86328 24.4531 9.49414 24.6816 9.03711 24.8926C8.5918 25.0918 8.09375 25.2793 7.54297 25.4551C7.00391 25.6191 6.4707 25.7598 5.94336 25.877C5.42773 25.9941 4.95312 26.082 4.51953 26.1406C4.08594 26.2109 3.76367 26.2461 3.55273 26.2461C3.1543 26.2461 2.78516 26.1992 2.44531 26.1055C2.11719 26.0117 1.83008 25.8711 1.58398 25.6836C1.33789 25.4844 1.14453 25.2324 1.00391 24.9277C0.875 24.623 0.810547 24.2539 0.810547 23.8203C0.810547 20.6914 0.822266 17.5742 0.845703 14.4688C0.869141 11.3633 0.880859 8.23438 0.880859 5.08203C0.880859 4.58984 0.869141 4.10352 0.845703 3.62305C0.822266 3.14258 0.810547 2.65625 0.810547 2.16406C0.810547 2.04687 0.816406 1.91211 0.828125 1.75977C0.839844 1.5957 0.869141 1.44922 0.916016 1.32031C0.962891 1.17969 1.0332 1.0625 1.12695 0.96875C1.2207 0.875 1.34961 0.828125 1.51367 0.828125C1.67773 0.828125 1.84766 0.851562 2.02344 0.898438C2.21094 0.945313 2.38086 1.01563 2.5332 1.10938C2.69727 1.20312 2.83789 1.32031 2.95508 1.46094C3.08398 1.58984 3.17773 1.74219 3.23633 1.91797C3.29492 2.12891 3.31836 2.35742 3.30664 2.60352C3.30664 2.83789 3.30664 3.07812 3.30664 3.32422C3.36523 6.44141 3.40625 9.53516 3.42969 12.6055C3.46484 15.6758 3.48242 18.7695 3.48242 21.8867C3.48242 22.2383 3.48242 22.5898 3.48242 22.9414C3.49414 23.293 3.51758 23.6445 3.55273 23.9961C3.86914 23.9844 4.25586 23.9316 4.71289 23.8379C5.16992 23.7441 5.62695 23.627 6.08398 23.4863C6.55273 23.334 6.99219 23.1641 7.40234 22.9766C7.8125 22.7891 8.13477 22.5898 8.36914 22.3789C8.47461 22.2734 8.58594 22.168 8.70312 22.0625C8.82031 21.9453 8.9668 21.8867 9.14258 21.8867C9.29492 21.8867 9.45312 21.9395 9.61719 22.0449C9.79297 22.1504 9.95117 22.2852 10.0918 22.4492C10.2324 22.6016 10.3496 22.7656 10.4434 22.9414C10.5371 23.1172 10.584 23.2812 10.584 23.4336ZM50.2051 23.4336C50.2051 23.7031 50.0586 23.9609 49.7656 24.207C49.4844 24.4531 49.1152 24.6816 48.6582 24.8926C48.2129 25.0918 47.7148 25.2793 47.1641 25.4551C46.625 25.6191 46.0918 25.7598 45.5645 25.877C45.0488 25.9941 44.5742 26.082 44.1406 26.1406C43.707 26.2109 43.3848 26.2461 43.1738 26.2461C42.7754 26.2461 42.4062 26.1992 42.0664 26.1055C41.7383 26.0117 41.4512 25.8711 41.2051 25.6836C40.959 25.4844 40.7656 25.2324 40.625 24.9277C40.4961 24.623 40.4316 24.2539 40.4316 23.8203C40.4316 20.6914 40.4434 17.5742 40.4668 14.4688C40.4902 11.3633 40.502 8.23438 40.502 5.08203C40.502 4.58984 40.4902 4.10352 40.4668 3.62305C40.4434 3.14258 40.4316 2.65625 40.4316 2.16406C40.4316 2.04687 40.4375 1.91211 40.4492 1.75977C40.4609 1.5957 40.4902 1.44922 40.5371 1.32031C40.584 1.17969 40.6543 1.0625 40.748 0.96875C40.8418 0.875 40.9707 0.828125 41.1348 0.828125C41.2988 0.828125 41.4688 0.851562 41.6445 0.898438C41.832 0.945313 42.002 1.01563 42.1543 1.10938C42.3184 1.20312 42.459 1.32031 42.5762 1.46094C42.7051 1.58984 42.7988 1.74219 42.8574 1.91797C42.916 2.12891 42.9395 2.35742 42.9277 2.60352C42.9277 2.83789 42.9277 3.07812 42.9277 3.32422C42.9863 6.44141 43.0273 9.53516 43.0508 12.6055C43.0859 15.6758 43.1035 18.7695 43.1035 21.8867C43.1035 22.2383 43.1035 22.5898 43.1035 22.9414C43.1152 23.293 43.1387 23.6445 43.1738 23.9961C43.4902 23.9844 43.877 23.9316 44.334 23.8379C44.791 23.7441 45.248 23.627 45.7051 23.4863C46.1738 23.334 46.6133 23.1641 47.0234 22.9766C47.4336 22.7891 47.7559 22.5898 47.9902 22.3789C48.0957 22.2734 48.207 22.168 48.3242 22.0625C48.4414 21.9453 48.5879 21.8867 48.7637 21.8867C48.916 21.8867 49.0742 21.9395 49.2383 22.0449C49.4141 22.1504 49.5723 22.2852 49.7129 22.4492C49.8535 22.6016 49.9707 22.7656 50.0645 22.9414C50.1582 23.1172 50.2051 23.2812 50.2051 23.4336Z" fill="#00E3CC"/>
<path d="M18.4766 18.793C18.4766 19.8125 18.3887 20.832 18.2129 21.8516C18.0488 22.8594 17.7031 23.8145 17.1758 24.7168C17.0117 24.9863 16.8242 25.25 16.6133 25.5078C16.4023 25.7539 16.168 25.9766 15.9102 26.1758C15.6641 26.3867 15.3887 26.5508 15.084 26.668C14.791 26.7969 14.4805 26.8613 14.1523 26.8613C13.6367 26.8613 13.1855 26.7383 12.7988 26.4922C12.4238 26.2578 12.0957 25.9473 11.8145 25.5605C11.5449 25.1621 11.3164 24.7168 11.1289 24.2246C10.9531 23.7207 10.8125 23.2109 10.707 22.6953C10.6133 22.168 10.543 21.6582 10.4961 21.166C10.4609 20.6738 10.4434 20.2402 10.4434 19.8652C10.4434 19.4434 10.4609 18.9805 10.4961 18.4766C10.5312 17.9727 10.5898 17.457 10.6719 16.9297C10.7656 16.4023 10.8828 15.8809 11.0234 15.3652C11.1758 14.8496 11.3691 14.3691 11.6035 13.9238C11.8379 13.4668 12.1191 13.0625 12.4473 12.7109C12.7754 12.3477 13.1562 12.0605 13.5898 11.8496V11.8672C13.9648 11.668 14.3398 11.5684 14.7148 11.5684C14.9492 11.5684 15.1309 11.6211 15.2598 11.7266C15.3887 11.8203 15.4473 11.9844 15.4355 12.2188C16.0801 12.3359 16.6016 12.6465 17 13.1504C17.3984 13.6543 17.7031 14.2402 17.9141 14.9082C18.1367 15.5762 18.2832 16.2617 18.3535 16.9648C18.4355 17.668 18.4766 18.2773 18.4766 18.793ZM14.5039 14.3984C14.3047 14.3984 14.1172 14.3223 13.9414 14.1699C13.7188 14.5098 13.5312 14.9023 13.3789 15.3477C13.2266 15.7812 13.1035 16.2324 13.0098 16.7012C12.9277 17.1582 12.8691 17.6211 12.834 18.0898C12.7988 18.5586 12.7812 18.998 12.7812 19.4082C12.7812 19.748 12.7988 20.1875 12.834 20.7266C12.8691 21.2539 12.9336 21.7871 13.0273 22.3262C13.1328 22.8652 13.2734 23.3691 13.4492 23.8379C13.6367 24.3066 13.877 24.6523 14.1699 24.875C14.5332 24.6641 14.832 24.3301 15.0664 23.873C15.3125 23.4043 15.5059 22.8945 15.6465 22.3438C15.7871 21.793 15.8809 21.2363 15.9277 20.6738C15.9863 20.1113 16.0156 19.6309 16.0156 19.2324C16.0156 18.9395 15.998 18.5586 15.9629 18.0898C15.9277 17.6211 15.8691 17.1465 15.7871 16.666C15.7051 16.1738 15.5879 15.7168 15.4355 15.2949C15.2949 14.873 15.1133 14.5566 14.8906 14.3457C14.7852 14.3809 14.6562 14.3984 14.5039 14.3984ZM21.8516 9.33594C21.8516 9.47656 21.8457 9.61719 21.834 9.75781C21.834 9.88672 21.8281 10.0215 21.8164 10.1621C21.8047 10.3027 21.7988 10.4434 21.7988 10.584C21.7988 10.7246 21.7988 10.8652 21.7988 11.0059C21.7988 11.2168 21.7637 11.4102 21.6934 11.5859C21.623 11.7617 21.4531 11.8496 21.1836 11.8496C21.0898 11.8496 20.9316 11.832 20.709 11.7969C20.498 11.7617 20.2754 11.709 20.041 11.6387C19.8184 11.5684 19.6191 11.4863 19.4434 11.3926C19.2676 11.2871 19.1797 11.1699 19.1797 11.041C19.1797 10.9941 19.2031 10.8477 19.25 10.6016C19.3086 10.3555 19.373 10.0918 19.4434 9.81055C19.5137 9.51758 19.5781 9.25391 19.6367 9.01953C19.6953 8.77344 19.7363 8.63867 19.7598 8.61523V8.63281C19.8184 8.50391 19.877 8.42773 19.9355 8.4043C19.9941 8.38086 20.0879 8.36914 20.2168 8.36914C20.3574 8.36914 20.5215 8.38672 20.709 8.42188C20.8965 8.44531 21.0723 8.49805 21.2363 8.58008C21.4121 8.65039 21.5586 8.75 21.6758 8.87891C21.793 8.99609 21.8516 9.14844 21.8516 9.33594ZM24.9805 20.5684C24.9805 20.6387 24.9219 20.8027 24.8047 21.0605C24.6992 21.3066 24.5645 21.5938 24.4004 21.9219C24.2363 22.25 24.0605 22.5957 23.873 22.959C23.6855 23.3105 23.5215 23.627 23.3809 23.9082C23.3105 24.0488 23.252 24.1777 23.2051 24.2949C23.1582 24.4004 23.1172 24.4824 23.082 24.541L23.2402 25.4902C23.4512 26.8379 23.6504 28.1914 23.8379 29.5508C24.0254 30.9102 24.1191 32.2812 24.1191 33.6641C24.1191 34.0742 24.1074 34.4961 24.084 34.9297C24.0723 35.375 24.0195 35.8086 23.9258 36.2305C23.8438 36.6523 23.7031 37.0508 23.5039 37.4258C23.3164 37.8125 23.0469 38.1465 22.6953 38.4277C22.4258 38.6387 22.1328 38.8027 21.8164 38.9199C21.5 39.0488 21.1719 39.1133 20.832 39.1133C20.1875 39.1133 19.6543 38.9727 19.2324 38.6914C18.8223 38.4219 18.4941 38.0703 18.248 37.6367C18.002 37.2031 17.832 36.7168 17.7383 36.1777C17.6328 35.6504 17.5801 35.123 17.5801 34.5957C17.5801 33.6699 17.6738 32.75 17.8613 31.8359C18.0371 30.9219 18.2715 30.0195 18.5645 29.1289C18.8574 28.2383 19.1855 27.3652 19.5488 26.5098C19.9238 25.6543 20.2988 24.8105 20.6738 23.9785C20.498 22.9238 20.3574 21.8809 20.252 20.8496C20.1465 19.8066 20.0586 18.7344 19.9883 17.6328L19.9355 16.7891C19.9121 16.3555 19.8828 15.9219 19.8477 15.4883C19.8242 15.0547 19.8125 14.6152 19.8125 14.1699C19.8125 13.9355 19.8477 13.7363 19.918 13.5723C20 13.3965 20.1758 13.3086 20.4453 13.3086C20.5742 13.3086 20.6973 13.3203 20.8145 13.3438C20.9316 13.3672 21.0547 13.4082 21.1836 13.4668V13.4492C21.4062 13.5547 21.5762 13.6777 21.6934 13.8184C21.8105 13.9473 21.8984 14.0879 21.957 14.2402C22.0156 14.3926 22.0508 14.5566 22.0625 14.7324C22.0859 14.9082 22.0977 15.0898 22.0977 15.2773V15.5586C22.1328 16.3789 22.1738 17.1465 22.2207 17.8613C22.2793 18.5645 22.3555 19.3262 22.4492 20.1465C22.5547 19.9355 22.6777 19.7422 22.8184 19.5664C22.9707 19.3789 23.1758 19.2852 23.4336 19.2852C23.5625 19.2852 23.7148 19.3262 23.8906 19.4082C24.0781 19.4902 24.248 19.5957 24.4004 19.7246C24.5645 19.8535 24.6992 19.9941 24.8047 20.1465C24.9219 20.2988 24.9805 20.4395 24.9805 20.5684ZM21.7637 33.2422C21.7637 32.4688 21.7227 31.6777 21.6406 30.8691C21.5703 30.0605 21.4766 29.2637 21.3594 28.4785C21.0078 29.416 20.7031 30.4004 20.4453 31.4316C20.1875 32.4746 20.0586 33.4883 20.0586 34.4727C20.0586 34.6719 20.0645 34.8887 20.0762 35.123C20.0879 35.3691 20.1172 35.6152 20.1641 35.8613C20.2109 36.1074 20.2754 36.3418 20.3574 36.5645C20.4395 36.7871 20.5508 36.9688 20.6914 37.1094C20.7031 37.1211 20.7383 37.127 20.7969 37.127C20.9492 37.127 21.0781 37.0449 21.1836 36.8809C21.2891 36.7285 21.377 36.5293 21.4473 36.2832C21.5176 36.0371 21.5703 35.7617 21.6055 35.457C21.6523 35.1523 21.6875 34.8535 21.7109 34.5605C21.7344 34.2793 21.7461 34.0156 21.7461 33.7695C21.7578 33.5352 21.7637 33.3594 21.7637 33.2422ZM52.6836 11.2168C52.6836 11.416 52.6367 11.5625 52.543 11.6562C52.4609 11.7383 52.3027 11.7793 52.0684 11.7793C51.9629 11.7793 51.7988 11.7676 51.5762 11.7441C51.3535 11.709 51.125 11.6621 50.8906 11.6035C50.668 11.5449 50.4688 11.4629 50.293 11.3574C50.1289 11.252 50.0469 11.123 50.0469 10.9707C50.0469 10.9238 50.0645 10.7949 50.0996 10.584C50.1348 10.3613 50.1758 10.127 50.2227 9.88086C50.2812 9.63477 50.3281 9.41211 50.3633 9.21289C50.4102 9.01367 50.4453 8.90234 50.4688 8.87891V8.89648C50.5273 8.80273 50.5977 8.74414 50.6797 8.7207C50.7617 8.69727 50.8438 8.68555 50.9258 8.68555C51.0312 8.68555 51.166 8.70312 51.3301 8.73828C51.5059 8.76172 51.6758 8.80273 51.8398 8.86133C52.0156 8.9082 52.1738 8.97266 52.3145 9.05469C52.4551 9.13672 52.543 9.22461 52.5781 9.31836C52.6133 9.41211 52.6309 9.54102 52.6309 9.70508C52.6426 9.85742 52.6426 9.99805 52.6309 10.127C52.6309 10.1738 52.625 10.2324 52.6133 10.3027C52.6133 10.3613 52.6133 10.4082 52.6133 10.4434C52.6133 10.502 52.6133 10.5605 52.6133 10.6191C52.625 10.6777 52.6367 10.7363 52.6484 10.7949C52.6602 10.8535 52.666 10.918 52.666 10.9883C52.6777 11.0586 52.6836 11.1348 52.6836 11.2168ZM53.334 25.2266C53.334 25.4961 53.2695 25.6895 53.1406 25.8066C53.0234 25.9121 52.8301 25.9648 52.5605 25.9648C52.4199 25.9648 52.2617 25.9473 52.0859 25.9121C51.9219 25.877 51.7578 25.8301 51.5938 25.7715C51.4297 25.7012 51.2773 25.6191 51.1367 25.5254C50.9961 25.4316 50.8906 25.3262 50.8203 25.209C50.7734 25.1387 50.7324 24.9219 50.6973 24.5586C50.6621 24.1953 50.6328 23.7441 50.6094 23.2051C50.5977 22.666 50.5801 22.0625 50.5566 21.3945C50.5449 20.7266 50.5332 20.0527 50.5215 19.373C50.5215 18.6934 50.5215 18.0312 50.5215 17.3867C50.5215 16.7422 50.5215 16.1797 50.5215 15.6992V14.3457C50.5215 14.2285 50.5215 14.1113 50.5215 13.9941C50.5332 13.877 50.5566 13.7773 50.5918 13.6953C50.6387 13.6016 50.7031 13.5254 50.7852 13.4668C50.8789 13.4082 51.0078 13.3789 51.1719 13.3789C51.6875 13.3789 52.0625 13.5254 52.2969 13.8184C52.543 14.0996 52.6953 14.4805 52.7539 14.9609C52.8125 15.6758 52.8535 16.3906 52.877 17.1055C52.9121 17.8086 52.9414 18.5234 52.9648 19.25C52.9883 19.9062 53.0059 20.5566 53.0176 21.2012C53.041 21.834 53.082 22.4668 53.1406 23.0996C53.1523 23.2285 53.1641 23.3516 53.1758 23.4688C53.1875 23.5859 53.2051 23.7031 53.2285 23.8203C53.252 24.0547 53.2754 24.2891 53.2988 24.5234C53.3223 24.7461 53.334 24.9805 53.334 25.2266ZM57.8164 25.9121C57.8164 26.1816 57.7344 26.3574 57.5703 26.4395C57.418 26.5215 57.2305 26.5625 57.0078 26.5625C56.8086 26.5625 56.6094 26.5449 56.4102 26.5098C56.2227 26.4863 56.041 26.4336 55.8652 26.3516C55.7012 26.2695 55.5547 26.1582 55.4258 26.0176C55.3086 25.877 55.2266 25.6953 55.1797 25.4727C55.0156 24.7695 54.9219 24.084 54.8984 23.416C54.875 22.7363 54.8633 22.0391 54.8633 21.3242V19.1621C54.8633 18.1777 54.9043 17.1582 54.9863 16.1035C55.0684 15.0371 55.1562 14.0117 55.25 13.0273C55.25 12.9922 55.2559 12.9512 55.2676 12.9043C55.2793 12.8574 55.2852 12.8223 55.2852 12.7988C55.2969 12.6699 55.3145 12.5293 55.3379 12.377C55.3613 12.2246 55.3965 12.0898 55.4434 11.9727C55.502 11.8438 55.5781 11.7383 55.6719 11.6562C55.7773 11.5742 55.9121 11.5332 56.0762 11.5332C56.2637 11.5332 56.4395 11.5742 56.6035 11.6562C56.7793 11.7266 56.9316 11.8262 57.0605 11.9551C57.1895 12.0723 57.2891 12.2188 57.3594 12.3945C57.4414 12.5703 57.4824 12.752 57.4824 12.9395C57.4824 13.1738 57.4707 13.4199 57.4473 13.6777C57.4355 13.9238 57.418 14.1641 57.3945 14.3984C57.3711 14.5625 57.3535 14.6855 57.3418 14.7676C57.3418 14.8496 57.3359 14.9844 57.3242 15.1719C57.4648 14.9258 57.623 14.6797 57.7988 14.4336C57.9863 14.1758 58.1914 13.9531 58.4141 13.7656C58.6367 13.5664 58.877 13.4082 59.1348 13.291C59.4043 13.1621 59.6914 13.0977 59.9961 13.0977C60.3008 13.0977 60.5527 13.1504 60.752 13.2559C60.9512 13.3496 61.1094 13.4844 61.2266 13.6602C61.3438 13.8242 61.4258 14.0234 61.4727 14.2578C61.5195 14.4922 61.543 14.7383 61.543 14.9961C61.543 15.1602 61.5371 15.3184 61.5254 15.4707C61.5254 15.623 61.5195 15.7754 61.5078 15.9277C61.4961 16.0801 61.4844 16.2324 61.4727 16.3848C61.4727 16.5254 61.4727 16.6777 61.4727 16.8418C61.4727 17.1465 61.4785 17.4395 61.4902 17.7207C61.5137 17.9902 61.5371 18.2773 61.5605 18.582C61.6777 18.1953 61.8184 17.7559 61.9824 17.2637C62.1582 16.7715 62.3574 16.2676 62.5801 15.752C62.8145 15.2363 63.0664 14.7324 63.3359 14.2402C63.6172 13.7363 63.916 13.291 64.2324 12.9043C64.5605 12.5176 64.9121 12.207 65.2871 11.9727C65.6621 11.7266 66.0547 11.6035 66.4648 11.6035C67.1094 11.6035 67.5605 11.791 67.8184 12.166C68.0879 12.541 68.2227 13.0215 68.2227 13.6074C68.2227 13.7715 68.2168 13.9473 68.2051 14.1348C68.1934 14.3105 68.1758 14.4805 68.1523 14.6445C68.0938 15.2773 68.0469 15.9277 68.0117 16.5957C67.9883 17.2637 67.9766 17.9141 67.9766 18.5469V18.8809C67.9766 19.7012 68.0117 20.4746 68.082 21.2012C68.1523 21.9277 68.293 22.6953 68.5039 23.5039L68.6445 23.9785C68.6914 24.1426 68.7441 24.3242 68.8027 24.5234C68.873 24.7227 68.9316 24.916 68.9785 25.1035C69.0254 25.291 69.0664 25.4668 69.1016 25.6309C69.1367 25.7949 69.1543 25.9238 69.1543 26.0176C69.1543 26.2637 69.0664 26.4277 68.8906 26.5098C68.7148 26.5918 68.5332 26.6328 68.3457 26.6328C68.2285 26.6328 68.0938 26.627 67.9414 26.6152C67.7891 26.6152 67.6367 26.5977 67.4844 26.5625C67.3438 26.5391 67.2031 26.498 67.0625 26.4395C66.9336 26.3809 66.8281 26.3047 66.7461 26.2109V26.2285C66.6406 26.123 66.5645 25.9941 66.5176 25.8418C66.4707 25.6895 66.4355 25.5371 66.4121 25.3848L66.377 25.2266C66.2129 24.5938 66.0723 24.0254 65.9551 23.5215C65.8496 23.0176 65.7617 22.5137 65.6914 22.0098C65.6211 21.5059 65.5684 20.9844 65.5332 20.4453C65.5098 19.9062 65.498 19.2852 65.498 18.582C65.498 17.9844 65.5215 17.375 65.5684 16.7539C65.627 16.1328 65.6855 15.5234 65.7441 14.9258C65.7441 14.8672 65.7441 14.8027 65.7441 14.7324C65.7559 14.6504 65.7676 14.5801 65.7793 14.5215C65.334 15.2129 64.9414 15.9746 64.6016 16.8066C64.2734 17.627 63.9746 18.4707 63.7051 19.3379C63.4473 20.2051 63.2188 21.0781 63.0195 21.957C62.832 22.8242 62.6621 23.6504 62.5098 24.4355C62.5098 24.4473 62.5332 24.5176 62.5801 24.6465C62.6387 24.7637 62.6914 24.9043 62.7383 25.0684C62.7969 25.2207 62.8496 25.373 62.8965 25.5254C62.9434 25.666 62.9668 25.7598 62.9668 25.8066C62.9668 26.0762 62.8789 26.2402 62.7031 26.2988C62.5273 26.3574 62.3457 26.3867 62.1582 26.3867C62.0176 26.3867 61.8652 26.3809 61.7012 26.3691C61.5371 26.3574 61.373 26.3281 61.209 26.2812C61.0566 26.2344 60.9102 26.1699 60.7695 26.0879C60.6406 26.0176 60.5352 25.9121 60.4531 25.7715C60.3828 25.6543 60.3008 25.3789 60.207 24.9453C60.1133 24.5 60.0137 23.9844 59.9082 23.3984C59.8027 22.8008 59.7031 22.1621 59.6094 21.4824C59.5156 20.8027 59.4277 20.1582 59.3457 19.5488C59.2637 18.9395 59.1992 18.4062 59.1523 17.9492C59.1055 17.4922 59.082 17.1816 59.082 17.0176V16.7539C58.707 17.5625 58.3965 18.4297 58.1504 19.3555C57.9043 20.2812 57.7168 21.1895 57.5879 22.0801L57.5176 22.3965C57.4941 22.4902 57.4766 22.584 57.4648 22.6777C57.4531 22.7598 57.4473 22.8418 57.4473 22.9238C57.4473 23.0527 57.459 23.2109 57.4824 23.3984C57.5176 23.5859 57.5586 23.791 57.6055 24.0137C57.6641 24.3184 57.7109 24.6348 57.7461 24.9629C57.793 25.2793 57.8164 25.5957 57.8164 25.9121ZM77.75 25.7715C77.75 26.0059 77.6914 26.1641 77.5742 26.2461C77.457 26.3398 77.293 26.3867 77.082 26.3867C76.5312 26.3867 76.1328 26.2402 75.8867 25.9473C75.6523 25.6543 75.4766 25.2676 75.3594 24.7871C75.3242 24.623 75.2891 24.459 75.2539 24.2949C75.2188 24.1191 75.1895 23.9492 75.166 23.7852C75.1426 23.6328 75.1191 23.5273 75.0957 23.4688C75.0723 23.4102 75.0488 23.2988 75.0254 23.1348C74.8848 23.4746 74.709 23.832 74.498 24.207C74.2988 24.5703 74.0645 24.9102 73.7949 25.2266C73.5254 25.5312 73.2207 25.7832 72.8809 25.9824C72.5527 26.1816 72.1895 26.2812 71.791 26.2812C71.3691 26.2812 71.0176 26.1816 70.7363 25.9824C70.4551 25.7715 70.2324 25.5137 70.0684 25.209C69.916 24.8926 69.8047 24.5469 69.7344 24.1719C69.6758 23.7969 69.6465 23.4395 69.6465 23.0996C69.6465 22.3027 69.7227 21.4414 69.875 20.5156C70.0391 19.5781 70.2617 18.6465 70.543 17.7207C70.8242 16.7832 71.1523 15.8867 71.5273 15.0312C71.9023 14.1641 72.3125 13.4082 72.7578 12.7637V12.7812L72.8633 12.623C72.9922 12.4473 73.1387 12.2598 73.3027 12.0605C73.4785 11.8496 73.6836 11.7441 73.918 11.7441C74.1406 11.7441 74.334 11.8438 74.498 12.043C74.6621 12.2305 74.7793 12.4297 74.8496 12.6406C75.1543 12.6992 75.4004 12.7754 75.5879 12.8691C75.7754 12.9512 75.9219 13.0566 76.0273 13.1855C76.1328 13.3145 76.2031 13.4668 76.2383 13.6426C76.2734 13.8066 76.291 13.9883 76.291 14.1875C76.291 14.2695 76.291 14.3574 76.291 14.4512C76.291 14.5449 76.2852 14.6387 76.2734 14.7324C76.2617 14.8262 76.2559 14.9375 76.2559 15.0664C76.2559 15.1953 76.2559 15.3125 76.2559 15.418C76.2559 15.5352 76.2734 15.6875 76.3086 15.875C76.3555 16.0625 76.4023 16.2559 76.4492 16.4551L76.5723 17.1055C76.6309 17.4453 76.6777 17.832 76.7129 18.2656C76.7598 18.6992 76.8125 19.1328 76.8711 19.5664C76.918 20.0117 76.9648 20.4453 77.0117 20.8672C77.0586 21.2773 77.1055 21.6582 77.1523 22.0098L77.5742 24.6113L77.627 24.9102C77.6504 25.0625 77.6738 25.2031 77.6973 25.332C77.7324 25.4609 77.75 25.6074 77.75 25.7715ZM73.7246 15.6641C73.7246 15.6406 73.7188 15.6055 73.707 15.5586C73.6953 15.5 73.6836 15.4414 73.6719 15.3828C73.4023 15.957 73.1621 16.584 72.9512 17.2637C72.752 17.9316 72.582 18.6172 72.4414 19.3203C72.3125 20.0117 72.2129 20.709 72.1426 21.4121C72.084 22.1035 72.0547 22.7598 72.0547 23.3809C72.0547 23.4395 72.0547 23.4922 72.0547 23.5391C72.0547 23.5859 72.0605 23.6328 72.0723 23.6797V23.6973C72.3535 23.2637 72.5938 22.6953 72.793 21.9922C73.0039 21.2773 73.1797 20.5332 73.3203 19.7598C73.4609 18.9746 73.5605 18.2188 73.6191 17.4922C73.6895 16.7539 73.7246 16.1445 73.7246 15.6641Z" fill="white"/>
<path d="M33.0664 25.7715C33.0664 26.0059 33.0078 26.1641 32.8906 26.2461C32.7734 26.3398 32.6094 26.3867 32.3984 26.3867C31.8477 26.3867 31.4492 26.2402 31.2031 25.9473C30.9688 25.6543 30.793 25.2676 30.6758 24.7871C30.6406 24.623 30.6055 24.459 30.5703 24.2949C30.5352 24.1191 30.5059 23.9492 30.4824 23.7852C30.459 23.6328 30.4355 23.5273 30.4121 23.4688C30.3887 23.4102 30.3652 23.2988 30.3418 23.1348C30.2012 23.4746 30.0254 23.832 29.8145 24.207C29.6152 24.5703 29.3809 24.9102 29.1113 25.2266C28.8418 25.5312 28.5371 25.7832 28.1973 25.9824C27.8691 26.1816 27.5059 26.2812 27.1074 26.2812C26.6855 26.2812 26.334 26.1816 26.0527 25.9824C25.7715 25.7715 25.5488 25.5137 25.3848 25.209C25.2324 24.8926 25.1211 24.5469 25.0508 24.1719C24.9922 23.7969 24.9629 23.4395 24.9629 23.0996C24.9629 22.3027 25.0391 21.4414 25.1914 20.5156C25.3555 19.5781 25.5781 18.6465 25.8594 17.7207C26.1406 16.7832 26.4688 15.8867 26.8438 15.0312C27.2188 14.1641 27.6289 13.4082 28.0742 12.7637V12.7812L28.1797 12.623C28.3086 12.4473 28.4551 12.2598 28.6191 12.0605C28.7949 11.8496 29 11.7441 29.2344 11.7441C29.457 11.7441 29.6504 11.8438 29.8145 12.043C29.9785 12.2305 30.0957 12.4297 30.166 12.6406C30.4707 12.6992 30.7168 12.7754 30.9043 12.8691C31.0918 12.9512 31.2383 13.0566 31.3438 13.1855C31.4492 13.3145 31.5195 13.4668 31.5547 13.6426C31.5898 13.8066 31.6074 13.9883 31.6074 14.1875C31.6074 14.2695 31.6074 14.3574 31.6074 14.4512C31.6074 14.5449 31.6016 14.6387 31.5898 14.7324C31.5781 14.8262 31.5723 14.9375 31.5723 15.0664C31.5723 15.1953 31.5723 15.3125 31.5723 15.418C31.5723 15.5352 31.5898 15.6875 31.625 15.875C31.6719 16.0625 31.7188 16.2559 31.7656 16.4551L31.8887 17.1055C31.9473 17.4453 31.9941 17.832 32.0293 18.2656C32.0762 18.6992 32.1289 19.1328 32.1875 19.5664C32.2344 20.0117 32.2812 20.4453 32.3281 20.8672C32.375 21.2773 32.4219 21.6582 32.4688 22.0098L32.8906 24.6113L32.9434 24.9102C32.9668 25.0625 32.9902 25.2031 33.0137 25.332C33.0488 25.4609 33.0664 25.6074 33.0664 25.7715ZM29.041 15.6641C29.041 15.6406 29.0352 15.6055 29.0234 15.5586C29.0117 15.5 29 15.4414 28.9883 15.3828C28.7188 15.957 28.4785 16.584 28.2676 17.2637C28.0684 17.9316 27.8984 18.6172 27.7578 19.3203C27.6289 20.0117 27.5293 20.709 27.459 21.4121C27.4004 22.1035 27.3711 22.7598 27.3711 23.3809C27.3711 23.4395 27.3711 23.4922 27.3711 23.5391C27.3711 23.5859 27.377 23.6328 27.3887 23.6797V23.6973C27.6699 23.2637 27.9102 22.6953 28.1094 21.9922C28.3203 21.2773 28.4961 20.5332 28.6367 19.7598C28.7773 18.9746 28.877 18.2188 28.9355 17.4922C29.0059 16.7539 29.041 16.1445 29.041 15.6641ZM84.834 13.1152C84.834 13.2559 84.7812 13.373 84.6758 13.4668C84.582 13.5605 84.4648 13.6426 84.3242 13.7129C84.1836 13.7715 84.0371 13.8125 83.8848 13.8359C83.7441 13.8594 83.627 13.8711 83.5332 13.8711C83.3926 13.8711 83.2578 13.8594 83.1289 13.8359C83 13.8008 82.8711 13.7656 82.7422 13.7305C82.6133 13.6953 82.4902 13.666 82.373 13.6426C82.2559 13.6074 82.1328 13.5898 82.0039 13.5898C81.8281 13.5898 81.6523 13.6191 81.4766 13.6777C81.3008 13.7363 81.1426 13.8184 81.002 13.9238C80.8613 14.0293 80.7441 14.1582 80.6504 14.3105C80.5684 14.4629 80.5273 14.6328 80.5273 14.8203C80.5273 15.1016 80.5859 15.3828 80.7031 15.6641C80.8203 15.9336 80.9727 16.209 81.1602 16.4902C81.3594 16.7715 81.582 17.0586 81.8281 17.3516C82.0859 17.6328 82.3555 17.9199 82.6367 18.2129C82.9766 18.5879 83.3164 18.9688 83.6562 19.3555C84.0078 19.7422 84.3184 20.1465 84.5879 20.5684C84.8691 20.9902 85.0977 21.4355 85.2734 21.9043C85.4492 22.373 85.5371 22.8652 85.5371 23.3809C85.5371 23.8262 85.4609 24.2246 85.3086 24.5762C85.168 24.9277 84.9629 25.2266 84.6934 25.4727C84.4355 25.7188 84.1191 25.9062 83.7441 26.0352C83.3809 26.1758 82.9824 26.2461 82.5488 26.2461C82.4316 26.2461 82.25 26.2227 82.0039 26.1758C81.7695 26.1289 81.5 26.0645 81.1953 25.9824C80.8906 25.8887 80.5742 25.7891 80.2461 25.6836C79.9297 25.5781 79.6367 25.4668 79.3672 25.3496C79.1094 25.2207 78.8926 25.0977 78.7168 24.9805C78.5527 24.8516 78.4707 24.7344 78.4707 24.6289C78.4707 24.4883 78.5352 24.3477 78.6641 24.207C78.793 24.0547 78.9453 23.9199 79.1211 23.8027C79.2969 23.6738 79.4785 23.5684 79.666 23.4863C79.8652 23.4043 80.0293 23.3633 80.1582 23.3633C80.334 23.3633 80.5156 23.4043 80.7031 23.4863C80.9023 23.5684 81.1016 23.6621 81.3008 23.7676C81.5234 23.8848 81.7461 23.9902 81.9688 24.084C82.2031 24.1777 82.4434 24.2246 82.6895 24.2246C82.877 24.2246 82.9824 24.1602 83.0059 24.0312C83.041 23.9023 83.0586 23.7559 83.0586 23.5918C83.0586 23.1816 82.9883 22.7949 82.8477 22.4316C82.707 22.0566 82.5254 21.6934 82.3027 21.3418C82.0801 20.9902 81.8223 20.6504 81.5293 20.3223C81.2363 19.9824 80.9434 19.6484 80.6504 19.3203C80.3457 18.9922 80.0469 18.6641 79.7539 18.3359C79.4727 18.0078 79.2207 17.6738 78.998 17.334C78.7754 16.9824 78.5938 16.625 78.4531 16.2617C78.3242 15.8984 78.2598 15.5117 78.2598 15.1016C78.2598 14.5977 78.3711 14.1465 78.5938 13.748C78.8164 13.3379 79.1035 12.9863 79.4551 12.6934C79.8184 12.4004 80.2227 12.1777 80.668 12.0254C81.125 11.8613 81.582 11.7793 82.0391 11.7793C82.1914 11.7793 82.4258 11.8145 82.7422 11.8848C83.0586 11.9434 83.3691 12.0312 83.6738 12.1484C83.9785 12.2656 84.248 12.4062 84.4824 12.5703C84.7168 12.7344 84.834 12.916 84.834 13.1152Z" fill="#BCC5CE"/>
</svg>
