<svg width="283" height="168" viewBox="0 0 283 168" fill="none" xmlns="http://www.w3.org/2000/svg">
<rect width="283" height="168" fill="#00E3CC"/>
<path d="M141 25L109 44.6444V93H130.333L140.644 81.6667L151.667 93H173V44.6444L141 25ZM126.422 89.2222V66.5556L137.089 77.8889L126.422 89.2222ZM129.978 62.7778H151.311L140.644 74.1111L129.978 62.7778ZM154.867 89.2222L144.2 77.8889L154.867 66.5556V89.2222ZM151.667 55.2222H129.622V47.6667H151.667V55.2222Z" fill="black"/>
<path d="M86.4062 106.5C86.4062 107.125 86.2396 107.615 85.9062 107.969C85.5729 108.323 85.1562 108.583 84.6562 108.75C84.1562 108.917 83.625 109.021 83.0625 109.062C82.5 109.104 81.9896 109.125 81.5312 109.125C80.6146 109.125 79.6979 109.115 78.7812 109.094C77.8646 109.073 76.9479 109.062 76.0312 109.062C75.5938 109.062 75.1562 109.062 74.7188 109.062C74.2812 109.062 73.8438 109.083 73.4062 109.125C73.2396 109.479 73.1354 109.844 73.0938 110.219C73.0521 110.573 73.0312 110.938 73.0312 111.312C73.0312 113.271 73.1042 115.208 73.25 117.125C73.3958 119.042 73.5521 120.979 73.7188 122.938C74.9688 122.833 76.2188 122.708 77.4688 122.562C78.7188 122.417 79.9896 122.25 81.2812 122.062C81.4479 122.062 81.6042 122.052 81.75 122.031C81.8958 122.01 82.0521 122 82.2188 122C83.0521 122 83.4688 122.458 83.4688 123.375C83.4688 123.625 83.4375 123.875 83.375 124.125C83.3333 124.375 83.2604 124.625 83.1562 124.875C83.0104 125.292 82.7708 125.604 82.4375 125.812C82.1042 126 81.7292 126.135 81.3125 126.219C80.8958 126.281 80.4583 126.312 80 126.312C79.5625 126.292 79.1771 126.292 78.8438 126.312L73.9688 126.5C74.0938 128.479 74.2292 130.438 74.375 132.375C74.5208 134.312 74.6771 136.271 74.8438 138.25C75.0104 139.75 75.1458 141.26 75.25 142.781C75.375 144.302 75.5521 145.812 75.7812 147.312V147.812C75.7812 148.292 75.6458 148.615 75.375 148.781C75.1042 148.927 74.7604 149 74.3438 149C73.5729 149 72.8438 148.875 72.1562 148.625C71.6979 148.458 71.3542 148.26 71.125 148.031C70.8958 147.781 70.7292 147.51 70.625 147.219C70.5417 146.906 70.4896 146.573 70.4688 146.219C70.4479 145.865 70.4271 145.479 70.4062 145.062C70.2188 141.917 70.0104 138.792 69.7812 135.688C69.5521 132.562 69.3438 129.417 69.1562 126.25C69.0312 123.917 68.8958 121.604 68.75 119.312C68.6042 117.021 68.5312 114.708 68.5312 112.375C68.5312 111.146 68.6042 110.104 68.75 109.25C68.9167 108.375 69.2188 107.667 69.6562 107.125C70.0938 106.583 70.7188 106.188 71.5312 105.938C72.3438 105.688 73.4062 105.562 74.7188 105.562C76.0729 105.562 77.4167 105.573 78.75 105.594C80.0833 105.615 81.4271 105.625 82.7812 105.625C83.2604 105.625 83.7188 105.615 84.1562 105.594C84.5938 105.552 85.0312 105.583 85.4688 105.688C85.7188 105.729 85.9375 105.802 86.125 105.906C86.3125 105.99 86.4062 106.188 86.4062 106.5ZM109.125 131.812C109.125 132.25 108.969 132.708 108.656 133.188C108.344 133.667 108 134.021 107.625 134.25C107.521 134.312 107.344 134.375 107.094 134.438C106.844 134.5 106.573 134.562 106.281 134.625C106.01 134.667 105.74 134.719 105.469 134.781C105.219 134.823 105.021 134.854 104.875 134.875L105.625 139.5C105.854 140.938 106.021 142.385 106.125 143.844C106.25 145.281 106.521 146.708 106.938 148.125C106.979 148.25 107.021 148.365 107.062 148.469C107.104 148.573 107.125 148.708 107.125 148.875C107.125 149.146 107.042 149.354 106.875 149.5C106.729 149.646 106.542 149.75 106.312 149.812C106.104 149.896 105.875 149.948 105.625 149.969C105.375 149.99 105.146 150 104.938 150H104.5C103.854 150 103.354 149.948 103 149.844C102.667 149.74 102.406 149.562 102.219 149.312C102.031 149.062 101.906 148.75 101.844 148.375C101.781 147.979 101.708 147.5 101.625 146.938C101.125 143.125 100.562 139.312 99.9375 135.5C98.6458 135.667 97.3438 135.823 96.0312 135.969C94.7396 136.115 93.4375 136.25 92.125 136.375L91.125 142.5C91.0833 142.875 91.0208 143.385 90.9375 144.031C90.875 144.677 90.7917 145.344 90.6875 146.031C90.6042 146.698 90.5 147.323 90.375 147.906C90.2708 148.49 90.1458 148.917 90 149.188C89.875 149.438 89.7604 149.615 89.6562 149.719C89.5521 149.823 89.3542 149.875 89.0625 149.875C88.6875 149.875 88.3125 149.802 87.9375 149.656C87.5833 149.531 87.2604 149.344 86.9688 149.094C86.6979 148.865 86.4792 148.583 86.3125 148.25C86.1458 147.917 86.0625 147.542 86.0625 147.125C86.0625 146.708 86.1042 146.292 86.1875 145.875C86.2917 145.458 86.375 145.042 86.4375 144.625C86.6667 143.25 86.875 141.885 87.0625 140.531C87.25 139.156 87.4583 137.792 87.6875 136.438C87.5417 136.417 87.375 136.385 87.1875 136.344C87 136.281 86.8125 136.208 86.625 136.125C86.4583 136.042 86.3125 135.938 86.1875 135.812C86.0625 135.688 86 135.542 86 135.375C86 135.167 86.0729 134.979 86.2188 134.812C86.3854 134.625 86.5729 134.458 86.7812 134.312C87.0104 134.146 87.2396 134.01 87.4688 133.906C87.6979 133.781 87.8958 133.688 88.0625 133.625C88.5 130.708 88.9167 127.802 89.3125 124.906C89.7083 122.01 90.0625 119.083 90.375 116.125C90.4583 115.333 90.5312 114.531 90.5938 113.719C90.6562 112.906 90.7188 112.094 90.7812 111.281C90.8646 110.469 90.9583 109.667 91.0625 108.875C91.1875 108.083 91.3542 107.292 91.5625 106.5C91.75 105.75 92.0625 105.146 92.5 104.688C92.9375 104.229 93.5833 104 94.4375 104C94.6875 104 94.9271 104.021 95.1562 104.062C95.4062 104.104 95.625 104.188 95.8125 104.312C96.3542 104.583 96.9167 105.323 97.5 106.531C98.0833 107.74 98.6667 109.208 99.25 110.938C99.8333 112.646 100.385 114.5 100.906 116.5C101.448 118.5 101.938 120.438 102.375 122.312C102.812 124.188 103.188 125.885 103.5 127.406C103.812 128.906 104.042 130.021 104.188 130.75C104.625 130.688 105.062 130.635 105.5 130.594C105.938 130.531 106.375 130.5 106.812 130.5C107.021 130.5 107.26 130.51 107.531 130.531C107.802 130.552 108.052 130.615 108.281 130.719C108.531 130.802 108.729 130.938 108.875 131.125C109.042 131.292 109.125 131.521 109.125 131.812ZM99.3125 131.562C98.7708 128.604 98.1771 125.677 97.5312 122.781C96.9062 119.865 96.1667 116.958 95.3125 114.062C94.9375 117.208 94.5312 120.333 94.0938 123.438C93.6562 126.542 93.1875 129.646 92.6875 132.75C93.8125 132.583 94.9167 132.406 96 132.219C97.1042 132.01 98.2083 131.792 99.3125 131.562ZM127.438 145.5C127.438 146.104 127.281 146.667 126.969 147.188C126.677 147.708 126.25 148.083 125.688 148.312C125.5 148.396 125.094 148.469 124.469 148.531C123.844 148.573 123.094 148.615 122.219 148.656C121.344 148.698 120.406 148.729 119.406 148.75C118.406 148.771 117.448 148.792 116.531 148.812C115.615 148.812 114.802 148.812 114.094 148.812C113.385 148.812 112.875 148.812 112.562 148.812C112.438 149.042 112.26 149.229 112.031 149.375C111.802 149.542 111.542 149.625 111.25 149.625C110.979 149.625 110.656 149.552 110.281 149.406C109.906 149.281 109.542 149.104 109.188 148.875C108.854 148.646 108.562 148.385 108.312 148.094C108.062 147.802 107.938 147.5 107.938 147.188C107.938 146.917 108 146.562 108.125 146.125C108.25 145.688 108.396 145.24 108.562 144.781C108.75 144.302 108.927 143.833 109.094 143.375C109.26 142.917 109.396 142.542 109.5 142.25L115.75 124L119.062 114.438C119.438 113.375 119.792 112.312 120.125 111.25C120.479 110.167 120.896 109.104 121.375 108.062C120.708 108.104 120.042 108.135 119.375 108.156C118.708 108.177 118.042 108.188 117.375 108.188C117.188 108.188 116.854 108.188 116.375 108.188C115.917 108.188 115.385 108.188 114.781 108.188C114.198 108.167 113.573 108.156 112.906 108.156C112.26 108.135 111.646 108.115 111.062 108.094C110.5 108.052 110.01 108.01 109.594 107.969C109.198 107.927 108.958 107.875 108.875 107.812C108.583 107.667 108.438 107.438 108.438 107.125C108.438 106.521 108.635 106.052 109.031 105.719C109.427 105.365 109.906 105.104 110.469 104.938C111.031 104.771 111.615 104.667 112.219 104.625C112.844 104.583 113.375 104.562 113.812 104.562C114.312 104.562 114.812 104.583 115.312 104.625C115.812 104.667 116.312 104.688 116.812 104.688C117.854 104.688 118.885 104.646 119.906 104.562C120.927 104.479 121.938 104.438 122.938 104.438C123.292 104.438 123.677 104.479 124.094 104.562C124.51 104.625 124.885 104.75 125.219 104.938C125.573 105.104 125.865 105.333 126.094 105.625C126.323 105.917 126.438 106.292 126.438 106.75C126.438 107.125 126.365 107.469 126.219 107.781C126.073 108.073 125.917 108.396 125.75 108.75C125.021 110.521 124.375 112.302 123.812 114.094C123.25 115.865 122.667 117.646 122.062 119.438C120.625 123.75 119.219 128.052 117.844 132.344C116.49 136.615 115.104 140.917 113.688 145.25C114.542 145.208 115.396 145.177 116.25 145.156C117.104 145.115 117.958 145.062 118.812 145C120 144.896 121.188 144.76 122.375 144.594C123.562 144.406 124.771 144.312 126 144.312C126.375 144.312 126.708 144.406 127 144.594C127.292 144.76 127.438 145.062 127.438 145.5ZM151.438 142.188C151.438 142.542 151.292 142.885 151 143.219C150.729 143.552 150.396 143.875 150 144.188C149.604 144.5 149.198 144.792 148.781 145.062C148.365 145.312 148.021 145.521 147.75 145.688C147.042 146.146 146.333 146.573 145.625 146.969C144.938 147.365 144.219 147.708 143.469 148C142.74 148.292 141.979 148.521 141.188 148.688C140.417 148.854 139.604 148.938 138.75 148.938L138.25 149C137.562 149 136.875 148.927 136.188 148.781C135.521 148.615 134.896 148.375 134.312 148.062C133.729 147.729 133.208 147.312 132.75 146.812C132.292 146.312 131.938 145.708 131.688 145C131.5 144.438 131.354 143.771 131.25 143C131.146 142.229 131.062 141.427 131 140.594C130.958 139.76 130.917 138.948 130.875 138.156C130.854 137.344 130.833 136.625 130.812 136C130.5 129.625 130.25 123.25 130.062 116.875C130.021 116.146 129.99 115.417 129.969 114.688C129.948 113.958 129.938 113.229 129.938 112.5C129.938 111.25 130.01 110.188 130.156 109.312C130.302 108.438 130.594 107.719 131.031 107.156C131.469 106.594 132.094 106.188 132.906 105.938C133.74 105.688 134.833 105.562 136.188 105.562C137.542 105.562 138.896 105.573 140.25 105.594C141.625 105.615 143 105.625 144.375 105.625C144.792 105.625 145.208 105.615 145.625 105.594C146.042 105.552 146.458 105.583 146.875 105.688C147.125 105.729 147.344 105.802 147.531 105.906C147.719 105.99 147.812 106.188 147.812 106.5C147.812 107.25 147.562 107.812 147.062 108.188C146.562 108.542 145.969 108.781 145.281 108.906C144.594 109.031 143.875 109.094 143.125 109.094C142.396 109.073 141.792 109.062 141.312 109.062H137.25C136.833 109.062 136.417 109.062 136 109.062C135.583 109.062 135.167 109.083 134.75 109.125C134.625 109.438 134.542 109.76 134.5 110.094C134.458 110.427 134.438 110.771 134.438 111.125C134.438 113.396 134.49 115.635 134.594 117.844C134.719 120.052 134.833 122.292 134.938 124.562C136.229 124.458 137.51 124.333 138.781 124.188C140.052 124.042 141.333 123.875 142.625 123.688C142.812 123.688 142.979 123.677 143.125 123.656C143.292 123.635 143.458 123.625 143.625 123.625C144.062 123.625 144.365 123.74 144.531 123.969C144.719 124.198 144.812 124.521 144.812 124.938C144.812 125.229 144.792 125.5 144.75 125.75C144.729 126 144.667 126.25 144.562 126.5C144.417 126.917 144.177 127.219 143.844 127.406C143.51 127.594 143.135 127.729 142.719 127.812C142.302 127.875 141.865 127.906 141.406 127.906C140.969 127.906 140.583 127.917 140.25 127.938C139.375 127.979 138.51 128.01 137.656 128.031C136.823 128.052 135.979 128.083 135.125 128.125C135.146 128.562 135.177 129.219 135.219 130.094C135.26 130.969 135.302 131.958 135.344 133.062C135.406 134.146 135.469 135.271 135.531 136.438C135.615 137.604 135.698 138.708 135.781 139.75C135.865 140.771 135.958 141.667 136.062 142.438C136.167 143.208 136.271 143.729 136.375 144C136.604 144.438 136.865 144.729 137.156 144.875C137.448 145 137.833 145.062 138.312 145.062C139.083 145.062 139.896 144.917 140.75 144.625C141.604 144.312 142.438 143.927 143.25 143.469C144.062 142.99 144.833 142.469 145.562 141.906C146.312 141.344 146.958 140.792 147.5 140.25C147.729 140.062 147.958 139.875 148.188 139.688C148.417 139.479 148.688 139.375 149 139.375C149.312 139.375 149.615 139.469 149.906 139.656C150.198 139.844 150.458 140.083 150.688 140.375C150.917 140.646 151.094 140.948 151.219 141.281C151.365 141.615 151.438 141.917 151.438 142.188ZM172.875 146.438C172.875 146.812 172.833 147.188 172.75 147.562C172.688 147.917 172.562 148.24 172.375 148.531C172.208 148.802 171.979 149.021 171.688 149.188C171.396 149.354 171.021 149.438 170.562 149.438C170 149.438 169.542 149.312 169.188 149.062C168.854 148.833 168.542 148.5 168.25 148.062C167.854 147.5 167.5 146.854 167.188 146.125C166.875 145.375 166.594 144.615 166.344 143.844C166.094 143.052 165.854 142.271 165.625 141.5C165.417 140.708 165.208 139.979 165 139.312C163.875 135.812 162.823 132.323 161.844 128.844C160.885 125.365 159.854 121.875 158.75 118.375C158.646 122.896 158.562 127.396 158.5 131.875C158.458 136.354 158.438 140.854 158.438 145.375C158.438 145.604 158.427 145.865 158.406 146.156C158.385 146.448 158.333 146.729 158.25 147C158.167 147.25 158.031 147.469 157.844 147.656C157.677 147.844 157.438 147.938 157.125 147.938C156.062 147.938 155.25 147.656 154.688 147.094C154.146 146.51 153.875 145.688 153.875 144.625C153.875 138.771 153.885 132.969 153.906 127.219C153.927 121.469 153.938 115.688 153.938 109.875V105.438C153.938 104.958 154.021 104.562 154.188 104.25C154.375 103.917 154.771 103.75 155.375 103.75C155.792 103.75 156.219 103.812 156.656 103.938C157.094 104.042 157.479 104.208 157.812 104.438C158.167 104.667 158.448 104.969 158.656 105.344C158.885 105.698 159 106.125 159 106.625C159.875 108.292 160.604 110.01 161.188 111.781C161.792 113.552 162.375 115.333 162.938 117.125C163.75 119.729 164.552 122.333 165.344 124.938C166.135 127.542 166.938 130.167 167.75 132.812C167.625 128.875 167.49 124.948 167.344 121.031C167.219 117.094 166.958 113.167 166.562 109.25C166.458 108.396 166.333 107.562 166.188 106.75C166.062 105.938 166 105.104 166 104.25C166 103.812 166.146 103.521 166.438 103.375C166.729 103.208 167.062 103.125 167.438 103.125C168.083 103.125 168.635 103.177 169.094 103.281C169.552 103.385 169.938 103.562 170.25 103.812C170.562 104.062 170.802 104.406 170.969 104.844C171.135 105.26 171.271 105.792 171.375 106.438C171.5 107.562 171.594 108.698 171.656 109.844C171.74 110.969 171.812 112.083 171.875 113.188C172.062 115.979 172.198 118.75 172.281 121.5C172.365 124.25 172.438 127.021 172.5 129.812C172.562 132.583 172.635 135.354 172.719 138.125C172.823 140.875 172.875 143.646 172.875 146.438ZM199.844 126.625C199.844 128.854 199.646 131.052 199.25 133.219C198.854 135.365 198.198 137.375 197.281 139.25C196.385 141.125 195.198 142.833 193.719 144.375C192.24 145.896 190.427 147.146 188.281 148.125C187.74 148.375 187.146 148.604 186.5 148.812C185.875 149.021 185.219 149.198 184.531 149.344C183.865 149.49 183.198 149.604 182.531 149.688C181.865 149.771 181.24 149.812 180.656 149.812C180.427 149.812 180.167 149.802 179.875 149.781C179.604 149.781 179.344 149.74 179.094 149.656C178.844 149.594 178.635 149.479 178.469 149.312C178.302 149.146 178.219 148.917 178.219 148.625C178.219 148.375 178.271 148.115 178.375 147.844C178.479 147.573 178.615 147.312 178.781 147.062C178.969 146.812 179.167 146.594 179.375 146.406C179.583 146.198 179.802 146.042 180.031 145.938C179.927 145.771 179.823 145.302 179.719 144.531C179.635 143.76 179.552 142.781 179.469 141.594C179.406 140.406 179.344 139.083 179.281 137.625C179.219 136.146 179.156 134.625 179.094 133.062C179.052 131.5 179.01 129.948 178.969 128.406C178.948 126.844 178.927 125.406 178.906 124.094C178.885 122.781 178.865 121.646 178.844 120.688C178.844 119.708 178.844 119 178.844 118.562C178.844 116.604 178.875 114.677 178.938 112.781C179 110.885 179.031 108.958 179.031 107C178.802 107 178.583 106.938 178.375 106.812C178.188 106.688 178.094 106.5 178.094 106.25C178.094 105.917 178.177 105.615 178.344 105.344C178.51 105.052 178.719 104.802 178.969 104.594C179.24 104.385 179.531 104.229 179.844 104.125C180.177 104 180.49 103.938 180.781 103.938C181.073 103.938 181.354 103.969 181.625 104.031C181.896 104.073 182.177 104.125 182.469 104.188C185.24 104.854 187.708 105.865 189.875 107.219C192.042 108.573 193.854 110.219 195.312 112.156C196.792 114.094 197.917 116.281 198.688 118.719C199.458 121.156 199.844 123.792 199.844 126.625ZM195.219 126.062C195.219 123.979 194.969 122.021 194.469 120.188C193.969 118.333 193.219 116.646 192.219 115.125C191.24 113.583 190 112.229 188.5 111.062C187.021 109.875 185.302 108.896 183.344 108.125V108.25C183.344 113.625 183.427 118.958 183.594 124.25C183.781 129.521 184.052 134.833 184.406 140.188C184.469 141 184.521 141.812 184.562 142.625C184.625 143.417 184.719 144.208 184.844 145C186.802 144.354 188.448 143.354 189.781 142C191.115 140.646 192.177 139.104 192.969 137.375C193.781 135.625 194.354 133.771 194.688 131.812C195.042 129.833 195.219 127.917 195.219 126.062ZM225.125 131.812C225.125 132.25 224.969 132.708 224.656 133.188C224.344 133.667 224 134.021 223.625 134.25C223.521 134.312 223.344 134.375 223.094 134.438C222.844 134.5 222.573 134.562 222.281 134.625C222.01 134.667 221.74 134.719 221.469 134.781C221.219 134.823 221.021 134.854 220.875 134.875L221.625 139.5C221.854 140.938 222.021 142.385 222.125 143.844C222.25 145.281 222.521 146.708 222.938 148.125C222.979 148.25 223.021 148.365 223.062 148.469C223.104 148.573 223.125 148.708 223.125 148.875C223.125 149.146 223.042 149.354 222.875 149.5C222.729 149.646 222.542 149.75 222.312 149.812C222.104 149.896 221.875 149.948 221.625 149.969C221.375 149.99 221.146 150 220.938 150H220.5C219.854 150 219.354 149.948 219 149.844C218.667 149.74 218.406 149.562 218.219 149.312C218.031 149.062 217.906 148.75 217.844 148.375C217.781 147.979 217.708 147.5 217.625 146.938C217.125 143.125 216.562 139.312 215.938 135.5C214.646 135.667 213.344 135.823 212.031 135.969C210.74 136.115 209.438 136.25 208.125 136.375L207.125 142.5C207.083 142.875 207.021 143.385 206.938 144.031C206.875 144.677 206.792 145.344 206.688 146.031C206.604 146.698 206.5 147.323 206.375 147.906C206.271 148.49 206.146 148.917 206 149.188C205.875 149.438 205.76 149.615 205.656 149.719C205.552 149.823 205.354 149.875 205.062 149.875C204.688 149.875 204.312 149.802 203.938 149.656C203.583 149.531 203.26 149.344 202.969 149.094C202.698 148.865 202.479 148.583 202.312 148.25C202.146 147.917 202.062 147.542 202.062 147.125C202.062 146.708 202.104 146.292 202.188 145.875C202.292 145.458 202.375 145.042 202.438 144.625C202.667 143.25 202.875 141.885 203.062 140.531C203.25 139.156 203.458 137.792 203.688 136.438C203.542 136.417 203.375 136.385 203.188 136.344C203 136.281 202.812 136.208 202.625 136.125C202.458 136.042 202.312 135.938 202.188 135.812C202.062 135.688 202 135.542 202 135.375C202 135.167 202.073 134.979 202.219 134.812C202.385 134.625 202.573 134.458 202.781 134.312C203.01 134.146 203.24 134.01 203.469 133.906C203.698 133.781 203.896 133.688 204.062 133.625C204.5 130.708 204.917 127.802 205.312 124.906C205.708 122.01 206.062 119.083 206.375 116.125C206.458 115.333 206.531 114.531 206.594 113.719C206.656 112.906 206.719 112.094 206.781 111.281C206.865 110.469 206.958 109.667 207.062 108.875C207.188 108.083 207.354 107.292 207.562 106.5C207.75 105.75 208.062 105.146 208.5 104.688C208.938 104.229 209.583 104 210.438 104C210.688 104 210.927 104.021 211.156 104.062C211.406 104.104 211.625 104.188 211.812 104.312C212.354 104.583 212.917 105.323 213.5 106.531C214.083 107.74 214.667 109.208 215.25 110.938C215.833 112.646 216.385 114.5 216.906 116.5C217.448 118.5 217.938 120.438 218.375 122.312C218.812 124.188 219.188 125.885 219.5 127.406C219.812 128.906 220.042 130.021 220.188 130.75C220.625 130.688 221.062 130.635 221.5 130.594C221.938 130.531 222.375 130.5 222.812 130.5C223.021 130.5 223.26 130.51 223.531 130.531C223.802 130.552 224.052 130.615 224.281 130.719C224.531 130.802 224.729 130.938 224.875 131.125C225.042 131.292 225.125 131.521 225.125 131.812ZM215.312 131.562C214.771 128.604 214.177 125.677 213.531 122.781C212.906 119.865 212.167 116.958 211.312 114.062C210.938 117.208 210.531 120.333 210.094 123.438C209.656 126.542 209.188 129.646 208.688 132.75C209.812 132.583 210.917 132.406 212 132.219C213.104 132.01 214.208 131.792 215.312 131.562Z" fill="black"/>
</svg>
