<svg width="283" height="168" viewBox="0 0 283 168" fill="none" xmlns="http://www.w3.org/2000/svg">
<rect width="283" height="168" fill="#00E3CC"/>
<path d="M97.3438 140.5C97.3438 140.792 97.2083 141.042 96.9375 141.25C96.6667 141.458 96.3438 141.625 95.9688 141.75C95.5938 141.875 95.2083 141.969 94.8125 142.031C94.4375 142.094 94.1354 142.125 93.9062 142.125C93.8438 142.125 93.7917 142.135 93.75 142.156C93.7083 142.177 93.6562 142.167 93.5938 142.125C93.1771 142.042 92.8125 141.896 92.5 141.688C92.1875 141.5 91.9062 141.271 91.6562 141C91.4062 140.75 91.1667 140.469 90.9375 140.156C90.7083 139.844 90.4688 139.521 90.2188 139.188C88.5521 137.083 86.9792 134.927 85.5 132.719C84.0417 130.49 82.7188 128.146 81.5312 125.688L81.1562 126.125V138.188C81.1562 138.417 81.1458 138.677 81.125 138.969C81.1042 139.24 81.0521 139.5 80.9688 139.75C80.8854 140 80.7604 140.208 80.5938 140.375C80.4271 140.542 80.1979 140.625 79.9062 140.625C79.2396 140.625 78.6875 140.521 78.25 140.312C77.8333 140.104 77.5 139.823 77.25 139.469C77.0208 139.094 76.8646 138.656 76.7812 138.156C76.6979 137.656 76.6562 137.104 76.6562 136.5C76.6562 134.542 76.6354 132.594 76.5938 130.656C76.5521 128.719 76.5312 126.771 76.5312 124.812C76.5312 123.958 76.5625 123.125 76.625 122.312C76.6875 121.5 76.7188 120.667 76.7188 119.812C76.7188 116.833 76.6042 113.875 76.375 110.938C76.1458 107.979 75.9062 105.021 75.6562 102.062C75.5938 101.375 75.5208 100.688 75.4375 100C75.375 99.3125 75.3438 98.625 75.3438 97.9375C75.3438 97.4375 75.5104 97.1042 75.8438 96.9375C76.1771 96.7708 76.5312 96.6875 76.9062 96.6875C78.0729 96.6875 78.9896 96.9271 79.6562 97.4062C80.3229 97.8854 80.6562 98.75 80.6562 100C80.6562 101.896 80.7188 103.75 80.8438 105.562C80.9479 107.833 81.0104 110.083 81.0312 112.312C81.0729 114.542 81.1146 116.792 81.1562 119.062C83.4062 116.25 85.1771 113.229 86.4688 110C87.7604 106.75 88.7396 103.354 89.4062 99.8125C89.4271 99.6042 89.4583 99.3438 89.5 99.0312C89.5625 98.7188 89.6354 98.4167 89.7188 98.125C89.8229 97.8125 89.9583 97.5521 90.125 97.3438C90.3125 97.1146 90.5521 97 90.8438 97C91.1771 97 91.5208 97.0625 91.875 97.1875C92.2292 97.2917 92.5417 97.4479 92.8125 97.6562C93.1042 97.8646 93.3333 98.1146 93.5 98.4062C93.6875 98.6979 93.7812 99.0208 93.7812 99.375C93.7812 100.292 93.6667 101.177 93.4375 102.031C93.2292 102.885 93.0104 103.75 92.7812 104.625C92.3438 106.396 91.875 108.031 91.375 109.531C90.8958 111.031 90.3333 112.479 89.6875 113.875C89.0625 115.25 88.3333 116.615 87.5 117.969C86.6667 119.302 85.6771 120.688 84.5312 122.125L85.8438 124.75C86.9479 126.854 88.1771 128.906 89.5312 130.906C90.8854 132.885 92.3646 134.771 93.9688 136.562C94.5104 137.167 95.0625 137.729 95.625 138.25C96.2083 138.75 96.7188 139.333 97.1562 140C97.2812 140.125 97.3438 140.292 97.3438 140.5ZM116.469 136.5C116.469 137.104 116.312 137.677 116 138.219C115.688 138.74 115.26 139.125 114.719 139.375C114.552 139.458 114.146 139.542 113.5 139.625C112.854 139.688 112.156 139.75 111.406 139.812C110.656 139.875 109.938 139.938 109.25 140C108.583 140.062 108.115 140.104 107.844 140.125C107.781 140.479 107.615 140.729 107.344 140.875C107.073 141 106.781 141.062 106.469 141.062C106.115 141.062 105.708 141.01 105.25 140.906C104.792 140.802 104.385 140.688 104.031 140.562C103.094 140.688 102.146 140.823 101.188 140.969C100.229 141.115 99.2604 141.188 98.2812 141.188C97.5312 141.188 97.1562 140.833 97.1562 140.125C97.1562 139.417 97.3542 138.875 97.75 138.5C98.1458 138.125 98.625 137.844 99.1875 137.656C99.75 137.469 100.354 137.344 101 137.281C101.646 137.219 102.219 137.146 102.719 137.062C102.615 131.146 102.5 125.271 102.375 119.438C102.271 113.604 102.219 107.729 102.219 101.812C101.365 101.875 100.531 101.938 99.7188 102C98.9062 102.042 98.0938 102.062 97.2812 102.062C97.1146 102.062 96.9375 102.062 96.75 102.062C96.5625 102.042 96.3854 102.01 96.2188 101.969C96.0729 101.906 95.9479 101.823 95.8438 101.719C95.7188 101.594 95.6562 101.417 95.6562 101.188C95.6562 100.792 95.7396 100.448 95.9062 100.156C96.0729 99.8438 96.2917 99.5938 96.5625 99.4062C96.8542 99.1979 97.1667 99.0312 97.5 98.9062C97.8333 98.7812 98.1771 98.6875 98.5312 98.625C99.4271 98.4583 100.333 98.3229 101.25 98.2188C102.188 98.0938 103.115 97.9792 104.031 97.875C104.969 97.75 105.896 97.625 106.812 97.5C107.75 97.375 108.677 97.2083 109.594 97C110.469 96.8125 111.344 96.5729 112.219 96.2812C113.094 95.9688 113.99 95.8125 114.906 95.8125C115.406 95.8125 115.74 96 115.906 96.375C116.073 96.7292 116.156 97.125 116.156 97.5625C116.156 97.9167 116.115 98.2604 116.031 98.5938C115.969 98.9062 115.823 99.2083 115.594 99.5C115.469 99.6667 115.188 99.8333 114.75 100C114.333 100.146 113.823 100.281 113.219 100.406C112.635 100.531 112 100.656 111.312 100.781C110.646 100.885 109.99 100.99 109.344 101.094C108.719 101.177 108.146 101.25 107.625 101.312C107.104 101.375 106.719 101.417 106.469 101.438C106.698 104.333 106.854 107.229 106.938 110.125C107.042 113.021 107.125 115.917 107.188 118.812C107.25 121.708 107.312 124.604 107.375 127.5C107.438 130.396 107.552 133.292 107.719 136.188C108.906 136 110.104 135.823 111.312 135.656C112.521 135.469 113.74 135.375 114.969 135.375C115.323 135.375 115.656 135.458 115.969 135.625C116.302 135.771 116.469 136.062 116.469 136.5ZM138.656 98C138.656 98.75 138.438 99.3646 138 99.8438C137.583 100.323 137.01 100.646 136.281 100.812C135.115 101.062 133.917 101.198 132.688 101.219C131.479 101.219 130.281 101.25 129.094 101.312V107.5C129.094 112.75 129.25 117.99 129.562 123.219C129.896 128.427 130.427 133.646 131.156 138.875C131.219 139.188 131.281 139.5 131.344 139.812C131.427 140.125 131.469 140.438 131.469 140.75C131.469 141.25 131.333 141.615 131.062 141.844C130.812 142.073 130.448 142.188 129.969 142.188C129.594 142.188 129.125 142.135 128.562 142.031C128.021 141.948 127.594 141.812 127.281 141.625C126.865 141.375 126.594 141.125 126.469 140.875C126.365 140.604 126.281 140.25 126.219 139.812C125.99 138.333 125.833 136.854 125.75 135.375C125.667 133.896 125.573 132.417 125.469 130.938C125.219 127.771 125.01 124.615 124.844 121.469C124.677 118.323 124.594 115.167 124.594 112C124.594 110.271 124.604 108.552 124.625 106.844C124.646 105.135 124.656 103.396 124.656 101.625C123.365 101.75 122.062 101.875 120.75 102C119.458 102.125 118.156 102.188 116.844 102.188C116.531 102.188 116.281 102.115 116.094 101.969C115.885 101.802 115.781 101.562 115.781 101.25C115.781 100.521 116.021 99.9583 116.5 99.5625C116.979 99.1458 117.552 98.8542 118.219 98.6875C119.281 98.4583 120.365 98.3125 121.469 98.25C122.573 98.1667 123.677 98.0625 124.781 97.9375C124.781 97.7292 124.792 97.5312 124.812 97.3438C124.833 97.1354 124.875 96.9583 124.938 96.8125C125.021 96.6458 125.135 96.5104 125.281 96.4062C125.427 96.3021 125.635 96.25 125.906 96.25C126.406 96.25 126.917 96.3646 127.438 96.5938C127.958 96.8229 128.365 97.1458 128.656 97.5625L133.844 97C134.344 96.9375 134.844 96.875 135.344 96.8125C135.844 96.7292 136.344 96.6875 136.844 96.6875C137.073 96.6875 137.292 96.6979 137.5 96.7188C137.729 96.7396 137.927 96.8021 138.094 96.9062C138.26 96.9896 138.396 97.125 138.5 97.3125C138.604 97.4792 138.656 97.7083 138.656 98ZM159.938 138.438C159.938 138.812 159.896 139.188 159.812 139.562C159.75 139.917 159.625 140.24 159.438 140.531C159.271 140.802 159.042 141.021 158.75 141.188C158.458 141.354 158.083 141.438 157.625 141.438C157.062 141.438 156.604 141.312 156.25 141.062C155.917 140.833 155.604 140.5 155.312 140.062C154.917 139.5 154.562 138.854 154.25 138.125C153.938 137.375 153.656 136.615 153.406 135.844C153.156 135.052 152.917 134.271 152.688 133.5C152.479 132.708 152.271 131.979 152.062 131.312C150.938 127.812 149.885 124.323 148.906 120.844C147.948 117.365 146.917 113.875 145.812 110.375C145.708 114.896 145.625 119.396 145.562 123.875C145.521 128.354 145.5 132.854 145.5 137.375C145.5 137.604 145.49 137.865 145.469 138.156C145.448 138.448 145.396 138.729 145.312 139C145.229 139.25 145.094 139.469 144.906 139.656C144.74 139.844 144.5 139.938 144.188 139.938C143.125 139.938 142.312 139.656 141.75 139.094C141.208 138.51 140.938 137.688 140.938 136.625C140.938 130.771 140.948 124.969 140.969 119.219C140.99 113.469 141 107.688 141 101.875V97.4375C141 96.9583 141.083 96.5625 141.25 96.25C141.438 95.9167 141.833 95.75 142.438 95.75C142.854 95.75 143.281 95.8125 143.719 95.9375C144.156 96.0417 144.542 96.2083 144.875 96.4375C145.229 96.6667 145.51 96.9688 145.719 97.3438C145.948 97.6979 146.062 98.125 146.062 98.625C146.938 100.292 147.667 102.01 148.25 103.781C148.854 105.552 149.438 107.333 150 109.125C150.812 111.729 151.615 114.333 152.406 116.938C153.198 119.542 154 122.167 154.812 124.812C154.688 120.875 154.552 116.948 154.406 113.031C154.281 109.094 154.021 105.167 153.625 101.25C153.521 100.396 153.396 99.5625 153.25 98.75C153.125 97.9375 153.062 97.1042 153.062 96.25C153.062 95.8125 153.208 95.5208 153.5 95.375C153.792 95.2083 154.125 95.125 154.5 95.125C155.146 95.125 155.698 95.1771 156.156 95.2812C156.615 95.3854 157 95.5625 157.312 95.8125C157.625 96.0625 157.865 96.4062 158.031 96.8438C158.198 97.2604 158.333 97.7917 158.438 98.4375C158.562 99.5625 158.656 100.698 158.719 101.844C158.802 102.969 158.875 104.083 158.938 105.188C159.125 107.979 159.26 110.75 159.344 113.5C159.427 116.25 159.5 119.021 159.562 121.812C159.625 124.583 159.698 127.354 159.781 130.125C159.885 132.875 159.938 135.646 159.938 138.438ZM186.75 134.188C186.75 134.542 186.604 134.885 186.312 135.219C186.042 135.552 185.708 135.875 185.312 136.188C184.917 136.5 184.51 136.792 184.094 137.062C183.677 137.312 183.333 137.521 183.062 137.688C182.354 138.146 181.646 138.573 180.938 138.969C180.25 139.365 179.531 139.708 178.781 140C178.052 140.292 177.292 140.521 176.5 140.688C175.729 140.854 174.917 140.938 174.062 140.938L173.562 141C172.875 141 172.188 140.927 171.5 140.781C170.833 140.615 170.208 140.375 169.625 140.062C169.042 139.729 168.521 139.312 168.062 138.812C167.604 138.312 167.25 137.708 167 137C166.812 136.438 166.667 135.771 166.562 135C166.458 134.229 166.375 133.427 166.312 132.594C166.271 131.76 166.229 130.948 166.188 130.156C166.167 129.344 166.146 128.625 166.125 128C165.812 121.625 165.562 115.25 165.375 108.875C165.333 108.146 165.302 107.417 165.281 106.688C165.26 105.958 165.25 105.229 165.25 104.5C165.25 103.25 165.323 102.188 165.469 101.312C165.615 100.438 165.906 99.7188 166.344 99.1562C166.781 98.5938 167.406 98.1875 168.219 97.9375C169.052 97.6875 170.146 97.5625 171.5 97.5625C172.854 97.5625 174.208 97.5729 175.562 97.5938C176.938 97.6146 178.312 97.625 179.688 97.625C180.104 97.625 180.521 97.6146 180.938 97.5938C181.354 97.5521 181.771 97.5833 182.188 97.6875C182.438 97.7292 182.656 97.8021 182.844 97.9062C183.031 97.9896 183.125 98.1875 183.125 98.5C183.125 99.25 182.875 99.8125 182.375 100.188C181.875 100.542 181.281 100.781 180.594 100.906C179.906 101.031 179.188 101.094 178.438 101.094C177.708 101.073 177.104 101.062 176.625 101.062H172.562C172.146 101.062 171.729 101.062 171.312 101.062C170.896 101.062 170.479 101.083 170.062 101.125C169.938 101.438 169.854 101.76 169.812 102.094C169.771 102.427 169.75 102.771 169.75 103.125C169.75 105.396 169.802 107.635 169.906 109.844C170.031 112.052 170.146 114.292 170.25 116.562C171.542 116.458 172.823 116.333 174.094 116.188C175.365 116.042 176.646 115.875 177.938 115.688C178.125 115.688 178.292 115.677 178.438 115.656C178.604 115.635 178.771 115.625 178.938 115.625C179.375 115.625 179.677 115.74 179.844 115.969C180.031 116.198 180.125 116.521 180.125 116.938C180.125 117.229 180.104 117.5 180.062 117.75C180.042 118 179.979 118.25 179.875 118.5C179.729 118.917 179.49 119.219 179.156 119.406C178.823 119.594 178.448 119.729 178.031 119.812C177.615 119.875 177.177 119.906 176.719 119.906C176.281 119.906 175.896 119.917 175.562 119.938C174.688 119.979 173.823 120.01 172.969 120.031C172.135 120.052 171.292 120.083 170.438 120.125C170.458 120.562 170.49 121.219 170.531 122.094C170.573 122.969 170.615 123.958 170.656 125.062C170.719 126.146 170.781 127.271 170.844 128.438C170.927 129.604 171.01 130.708 171.094 131.75C171.177 132.771 171.271 133.667 171.375 134.438C171.479 135.208 171.583 135.729 171.688 136C171.917 136.438 172.177 136.729 172.469 136.875C172.76 137 173.146 137.062 173.625 137.062C174.396 137.062 175.208 136.917 176.062 136.625C176.917 136.312 177.75 135.927 178.562 135.469C179.375 134.99 180.146 134.469 180.875 133.906C181.625 133.344 182.271 132.792 182.812 132.25C183.042 132.062 183.271 131.875 183.5 131.688C183.729 131.479 184 131.375 184.312 131.375C184.625 131.375 184.927 131.469 185.219 131.656C185.51 131.844 185.771 132.083 186 132.375C186.229 132.646 186.406 132.948 186.531 133.281C186.677 133.615 186.75 133.917 186.75 134.188ZM207.844 98C207.844 98.75 207.625 99.3646 207.188 99.8438C206.771 100.323 206.198 100.646 205.469 100.812C204.302 101.062 203.104 101.198 201.875 101.219C200.667 101.219 199.469 101.25 198.281 101.312V107.5C198.281 112.75 198.438 117.99 198.75 123.219C199.083 128.427 199.615 133.646 200.344 138.875C200.406 139.188 200.469 139.5 200.531 139.812C200.615 140.125 200.656 140.438 200.656 140.75C200.656 141.25 200.521 141.615 200.25 141.844C200 142.073 199.635 142.188 199.156 142.188C198.781 142.188 198.312 142.135 197.75 142.031C197.208 141.948 196.781 141.812 196.469 141.625C196.052 141.375 195.781 141.125 195.656 140.875C195.552 140.604 195.469 140.25 195.406 139.812C195.177 138.333 195.021 136.854 194.938 135.375C194.854 133.896 194.76 132.417 194.656 130.938C194.406 127.771 194.198 124.615 194.031 121.469C193.865 118.323 193.781 115.167 193.781 112C193.781 110.271 193.792 108.552 193.812 106.844C193.833 105.135 193.844 103.396 193.844 101.625C192.552 101.75 191.25 101.875 189.938 102C188.646 102.125 187.344 102.188 186.031 102.188C185.719 102.188 185.469 102.115 185.281 101.969C185.073 101.802 184.969 101.562 184.969 101.25C184.969 100.521 185.208 99.9583 185.688 99.5625C186.167 99.1458 186.74 98.8542 187.406 98.6875C188.469 98.4583 189.552 98.3125 190.656 98.25C191.76 98.1667 192.865 98.0625 193.969 97.9375C193.969 97.7292 193.979 97.5312 194 97.3438C194.021 97.1354 194.062 96.9583 194.125 96.8125C194.208 96.6458 194.323 96.5104 194.469 96.4062C194.615 96.3021 194.823 96.25 195.094 96.25C195.594 96.25 196.104 96.3646 196.625 96.5938C197.146 96.8229 197.552 97.1458 197.844 97.5625L203.031 97C203.531 96.9375 204.031 96.875 204.531 96.8125C205.031 96.7292 205.531 96.6875 206.031 96.6875C206.26 96.6875 206.479 96.6979 206.688 96.7188C206.917 96.7396 207.115 96.8021 207.281 96.9062C207.448 96.9896 207.583 97.125 207.688 97.3125C207.792 97.4792 207.844 97.7083 207.844 98Z" fill="black"/>
<path d="M133.8 83V60.0588H149.2V83H168.45V52.4118H180L141.5 18L103 52.4118H114.55V83H133.8Z" fill="#032612"/>
</svg>
