<svg width="283" height="168" viewBox="0 0 283 168" fill="none" xmlns="http://www.w3.org/2000/svg">
<rect width="283" height="168" fill="#3D4CF5"/>
<path d="M141 24L109 43.6444V92H130.333L140.644 80.6667L151.667 92H173V43.6444L141 24ZM126.422 88.2222V65.5556L137.089 76.8889L126.422 88.2222ZM129.978 61.7778H151.311L140.644 73.1111L129.978 61.7778ZM154.867 88.2222L144.2 76.8889L154.867 65.5556V88.2222ZM151.667 54.2222H129.622V46.6667H151.667V54.2222Z" fill="white"/>
<path d="M86.4062 105.5C86.4062 106.125 86.2396 106.615 85.9062 106.969C85.5729 107.323 85.1562 107.583 84.6562 107.75C84.1562 107.917 83.625 108.021 83.0625 108.062C82.5 108.104 81.9896 108.125 81.5312 108.125C80.6146 108.125 79.6979 108.115 78.7812 108.094C77.8646 108.073 76.9479 108.062 76.0312 108.062C75.5938 108.062 75.1562 108.062 74.7188 108.062C74.2812 108.062 73.8438 108.083 73.4062 108.125C73.2396 108.479 73.1354 108.844 73.0938 109.219C73.0521 109.573 73.0312 109.938 73.0312 110.312C73.0312 112.271 73.1042 114.208 73.25 116.125C73.3958 118.042 73.5521 119.979 73.7188 121.938C74.9688 121.833 76.2188 121.708 77.4688 121.562C78.7188 121.417 79.9896 121.25 81.2812 121.062C81.4479 121.062 81.6042 121.052 81.75 121.031C81.8958 121.01 82.0521 121 82.2188 121C83.0521 121 83.4688 121.458 83.4688 122.375C83.4688 122.625 83.4375 122.875 83.375 123.125C83.3333 123.375 83.2604 123.625 83.1562 123.875C83.0104 124.292 82.7708 124.604 82.4375 124.812C82.1042 125 81.7292 125.135 81.3125 125.219C80.8958 125.281 80.4583 125.312 80 125.312C79.5625 125.292 79.1771 125.292 78.8438 125.312L73.9688 125.5C74.0938 127.479 74.2292 129.438 74.375 131.375C74.5208 133.312 74.6771 135.271 74.8438 137.25C75.0104 138.75 75.1458 140.26 75.25 141.781C75.375 143.302 75.5521 144.812 75.7812 146.312V146.812C75.7812 147.292 75.6458 147.615 75.375 147.781C75.1042 147.927 74.7604 148 74.3438 148C73.5729 148 72.8438 147.875 72.1562 147.625C71.6979 147.458 71.3542 147.26 71.125 147.031C70.8958 146.781 70.7292 146.51 70.625 146.219C70.5417 145.906 70.4896 145.573 70.4688 145.219C70.4479 144.865 70.4271 144.479 70.4062 144.062C70.2188 140.917 70.0104 137.792 69.7812 134.688C69.5521 131.562 69.3438 128.417 69.1562 125.25C69.0312 122.917 68.8958 120.604 68.75 118.312C68.6042 116.021 68.5312 113.708 68.5312 111.375C68.5312 110.146 68.6042 109.104 68.75 108.25C68.9167 107.375 69.2188 106.667 69.6562 106.125C70.0938 105.583 70.7188 105.188 71.5312 104.938C72.3438 104.688 73.4062 104.562 74.7188 104.562C76.0729 104.562 77.4167 104.573 78.75 104.594C80.0833 104.615 81.4271 104.625 82.7812 104.625C83.2604 104.625 83.7188 104.615 84.1562 104.594C84.5938 104.552 85.0312 104.583 85.4688 104.688C85.7188 104.729 85.9375 104.802 86.125 104.906C86.3125 104.99 86.4062 105.188 86.4062 105.5ZM109.125 130.812C109.125 131.25 108.969 131.708 108.656 132.188C108.344 132.667 108 133.021 107.625 133.25C107.521 133.312 107.344 133.375 107.094 133.438C106.844 133.5 106.573 133.562 106.281 133.625C106.01 133.667 105.74 133.719 105.469 133.781C105.219 133.823 105.021 133.854 104.875 133.875L105.625 138.5C105.854 139.938 106.021 141.385 106.125 142.844C106.25 144.281 106.521 145.708 106.938 147.125C106.979 147.25 107.021 147.365 107.062 147.469C107.104 147.573 107.125 147.708 107.125 147.875C107.125 148.146 107.042 148.354 106.875 148.5C106.729 148.646 106.542 148.75 106.312 148.812C106.104 148.896 105.875 148.948 105.625 148.969C105.375 148.99 105.146 149 104.938 149H104.5C103.854 149 103.354 148.948 103 148.844C102.667 148.74 102.406 148.562 102.219 148.312C102.031 148.062 101.906 147.75 101.844 147.375C101.781 146.979 101.708 146.5 101.625 145.938C101.125 142.125 100.562 138.312 99.9375 134.5C98.6458 134.667 97.3438 134.823 96.0312 134.969C94.7396 135.115 93.4375 135.25 92.125 135.375L91.125 141.5C91.0833 141.875 91.0208 142.385 90.9375 143.031C90.875 143.677 90.7917 144.344 90.6875 145.031C90.6042 145.698 90.5 146.323 90.375 146.906C90.2708 147.49 90.1458 147.917 90 148.188C89.875 148.438 89.7604 148.615 89.6562 148.719C89.5521 148.823 89.3542 148.875 89.0625 148.875C88.6875 148.875 88.3125 148.802 87.9375 148.656C87.5833 148.531 87.2604 148.344 86.9688 148.094C86.6979 147.865 86.4792 147.583 86.3125 147.25C86.1458 146.917 86.0625 146.542 86.0625 146.125C86.0625 145.708 86.1042 145.292 86.1875 144.875C86.2917 144.458 86.375 144.042 86.4375 143.625C86.6667 142.25 86.875 140.885 87.0625 139.531C87.25 138.156 87.4583 136.792 87.6875 135.438C87.5417 135.417 87.375 135.385 87.1875 135.344C87 135.281 86.8125 135.208 86.625 135.125C86.4583 135.042 86.3125 134.938 86.1875 134.812C86.0625 134.688 86 134.542 86 134.375C86 134.167 86.0729 133.979 86.2188 133.812C86.3854 133.625 86.5729 133.458 86.7812 133.312C87.0104 133.146 87.2396 133.01 87.4688 132.906C87.6979 132.781 87.8958 132.688 88.0625 132.625C88.5 129.708 88.9167 126.802 89.3125 123.906C89.7083 121.01 90.0625 118.083 90.375 115.125C90.4583 114.333 90.5312 113.531 90.5938 112.719C90.6562 111.906 90.7188 111.094 90.7812 110.281C90.8646 109.469 90.9583 108.667 91.0625 107.875C91.1875 107.083 91.3542 106.292 91.5625 105.5C91.75 104.75 92.0625 104.146 92.5 103.688C92.9375 103.229 93.5833 103 94.4375 103C94.6875 103 94.9271 103.021 95.1562 103.062C95.4062 103.104 95.625 103.188 95.8125 103.312C96.3542 103.583 96.9167 104.323 97.5 105.531C98.0833 106.74 98.6667 108.208 99.25 109.938C99.8333 111.646 100.385 113.5 100.906 115.5C101.448 117.5 101.938 119.438 102.375 121.312C102.812 123.188 103.188 124.885 103.5 126.406C103.812 127.906 104.042 129.021 104.188 129.75C104.625 129.688 105.062 129.635 105.5 129.594C105.938 129.531 106.375 129.5 106.812 129.5C107.021 129.5 107.26 129.51 107.531 129.531C107.802 129.552 108.052 129.615 108.281 129.719C108.531 129.802 108.729 129.938 108.875 130.125C109.042 130.292 109.125 130.521 109.125 130.812ZM99.3125 130.562C98.7708 127.604 98.1771 124.677 97.5312 121.781C96.9062 118.865 96.1667 115.958 95.3125 113.062C94.9375 116.208 94.5312 119.333 94.0938 122.438C93.6562 125.542 93.1875 128.646 92.6875 131.75C93.8125 131.583 94.9167 131.406 96 131.219C97.1042 131.01 98.2083 130.792 99.3125 130.562ZM127.438 144.5C127.438 145.104 127.281 145.667 126.969 146.188C126.677 146.708 126.25 147.083 125.688 147.312C125.5 147.396 125.094 147.469 124.469 147.531C123.844 147.573 123.094 147.615 122.219 147.656C121.344 147.698 120.406 147.729 119.406 147.75C118.406 147.771 117.448 147.792 116.531 147.812C115.615 147.812 114.802 147.812 114.094 147.812C113.385 147.812 112.875 147.812 112.562 147.812C112.438 148.042 112.26 148.229 112.031 148.375C111.802 148.542 111.542 148.625 111.25 148.625C110.979 148.625 110.656 148.552 110.281 148.406C109.906 148.281 109.542 148.104 109.188 147.875C108.854 147.646 108.562 147.385 108.312 147.094C108.062 146.802 107.938 146.5 107.938 146.188C107.938 145.917 108 145.562 108.125 145.125C108.25 144.688 108.396 144.24 108.562 143.781C108.75 143.302 108.927 142.833 109.094 142.375C109.26 141.917 109.396 141.542 109.5 141.25L115.75 123L119.062 113.438C119.438 112.375 119.792 111.312 120.125 110.25C120.479 109.167 120.896 108.104 121.375 107.062C120.708 107.104 120.042 107.135 119.375 107.156C118.708 107.177 118.042 107.188 117.375 107.188C117.188 107.188 116.854 107.188 116.375 107.188C115.917 107.188 115.385 107.188 114.781 107.188C114.198 107.167 113.573 107.156 112.906 107.156C112.26 107.135 111.646 107.115 111.062 107.094C110.5 107.052 110.01 107.01 109.594 106.969C109.198 106.927 108.958 106.875 108.875 106.812C108.583 106.667 108.438 106.438 108.438 106.125C108.438 105.521 108.635 105.052 109.031 104.719C109.427 104.365 109.906 104.104 110.469 103.938C111.031 103.771 111.615 103.667 112.219 103.625C112.844 103.583 113.375 103.562 113.812 103.562C114.312 103.562 114.812 103.583 115.312 103.625C115.812 103.667 116.312 103.688 116.812 103.688C117.854 103.688 118.885 103.646 119.906 103.562C120.927 103.479 121.938 103.438 122.938 103.438C123.292 103.438 123.677 103.479 124.094 103.562C124.51 103.625 124.885 103.75 125.219 103.938C125.573 104.104 125.865 104.333 126.094 104.625C126.323 104.917 126.438 105.292 126.438 105.75C126.438 106.125 126.365 106.469 126.219 106.781C126.073 107.073 125.917 107.396 125.75 107.75C125.021 109.521 124.375 111.302 123.812 113.094C123.25 114.865 122.667 116.646 122.062 118.438C120.625 122.75 119.219 127.052 117.844 131.344C116.49 135.615 115.104 139.917 113.688 144.25C114.542 144.208 115.396 144.177 116.25 144.156C117.104 144.115 117.958 144.062 118.812 144C120 143.896 121.188 143.76 122.375 143.594C123.562 143.406 124.771 143.312 126 143.312C126.375 143.312 126.708 143.406 127 143.594C127.292 143.76 127.438 144.062 127.438 144.5ZM151.438 141.188C151.438 141.542 151.292 141.885 151 142.219C150.729 142.552 150.396 142.875 150 143.188C149.604 143.5 149.198 143.792 148.781 144.062C148.365 144.312 148.021 144.521 147.75 144.688C147.042 145.146 146.333 145.573 145.625 145.969C144.938 146.365 144.219 146.708 143.469 147C142.74 147.292 141.979 147.521 141.188 147.688C140.417 147.854 139.604 147.938 138.75 147.938L138.25 148C137.562 148 136.875 147.927 136.188 147.781C135.521 147.615 134.896 147.375 134.312 147.062C133.729 146.729 133.208 146.312 132.75 145.812C132.292 145.312 131.938 144.708 131.688 144C131.5 143.438 131.354 142.771 131.25 142C131.146 141.229 131.062 140.427 131 139.594C130.958 138.76 130.917 137.948 130.875 137.156C130.854 136.344 130.833 135.625 130.812 135C130.5 128.625 130.25 122.25 130.062 115.875C130.021 115.146 129.99 114.417 129.969 113.688C129.948 112.958 129.938 112.229 129.938 111.5C129.938 110.25 130.01 109.188 130.156 108.312C130.302 107.438 130.594 106.719 131.031 106.156C131.469 105.594 132.094 105.188 132.906 104.938C133.74 104.688 134.833 104.562 136.188 104.562C137.542 104.562 138.896 104.573 140.25 104.594C141.625 104.615 143 104.625 144.375 104.625C144.792 104.625 145.208 104.615 145.625 104.594C146.042 104.552 146.458 104.583 146.875 104.688C147.125 104.729 147.344 104.802 147.531 104.906C147.719 104.99 147.812 105.188 147.812 105.5C147.812 106.25 147.562 106.812 147.062 107.188C146.562 107.542 145.969 107.781 145.281 107.906C144.594 108.031 143.875 108.094 143.125 108.094C142.396 108.073 141.792 108.062 141.312 108.062H137.25C136.833 108.062 136.417 108.062 136 108.062C135.583 108.062 135.167 108.083 134.75 108.125C134.625 108.438 134.542 108.76 134.5 109.094C134.458 109.427 134.438 109.771 134.438 110.125C134.438 112.396 134.49 114.635 134.594 116.844C134.719 119.052 134.833 121.292 134.938 123.562C136.229 123.458 137.51 123.333 138.781 123.188C140.052 123.042 141.333 122.875 142.625 122.688C142.812 122.688 142.979 122.677 143.125 122.656C143.292 122.635 143.458 122.625 143.625 122.625C144.062 122.625 144.365 122.74 144.531 122.969C144.719 123.198 144.812 123.521 144.812 123.938C144.812 124.229 144.792 124.5 144.75 124.75C144.729 125 144.667 125.25 144.562 125.5C144.417 125.917 144.177 126.219 143.844 126.406C143.51 126.594 143.135 126.729 142.719 126.812C142.302 126.875 141.865 126.906 141.406 126.906C140.969 126.906 140.583 126.917 140.25 126.938C139.375 126.979 138.51 127.01 137.656 127.031C136.823 127.052 135.979 127.083 135.125 127.125C135.146 127.562 135.177 128.219 135.219 129.094C135.26 129.969 135.302 130.958 135.344 132.062C135.406 133.146 135.469 134.271 135.531 135.438C135.615 136.604 135.698 137.708 135.781 138.75C135.865 139.771 135.958 140.667 136.062 141.438C136.167 142.208 136.271 142.729 136.375 143C136.604 143.438 136.865 143.729 137.156 143.875C137.448 144 137.833 144.062 138.312 144.062C139.083 144.062 139.896 143.917 140.75 143.625C141.604 143.312 142.438 142.927 143.25 142.469C144.062 141.99 144.833 141.469 145.562 140.906C146.312 140.344 146.958 139.792 147.5 139.25C147.729 139.062 147.958 138.875 148.188 138.688C148.417 138.479 148.688 138.375 149 138.375C149.312 138.375 149.615 138.469 149.906 138.656C150.198 138.844 150.458 139.083 150.688 139.375C150.917 139.646 151.094 139.948 151.219 140.281C151.365 140.615 151.438 140.917 151.438 141.188ZM172.875 145.438C172.875 145.812 172.833 146.188 172.75 146.562C172.688 146.917 172.562 147.24 172.375 147.531C172.208 147.802 171.979 148.021 171.688 148.188C171.396 148.354 171.021 148.438 170.562 148.438C170 148.438 169.542 148.312 169.188 148.062C168.854 147.833 168.542 147.5 168.25 147.062C167.854 146.5 167.5 145.854 167.188 145.125C166.875 144.375 166.594 143.615 166.344 142.844C166.094 142.052 165.854 141.271 165.625 140.5C165.417 139.708 165.208 138.979 165 138.312C163.875 134.812 162.823 131.323 161.844 127.844C160.885 124.365 159.854 120.875 158.75 117.375C158.646 121.896 158.562 126.396 158.5 130.875C158.458 135.354 158.438 139.854 158.438 144.375C158.438 144.604 158.427 144.865 158.406 145.156C158.385 145.448 158.333 145.729 158.25 146C158.167 146.25 158.031 146.469 157.844 146.656C157.677 146.844 157.438 146.938 157.125 146.938C156.062 146.938 155.25 146.656 154.688 146.094C154.146 145.51 153.875 144.688 153.875 143.625C153.875 137.771 153.885 131.969 153.906 126.219C153.927 120.469 153.938 114.688 153.938 108.875V104.438C153.938 103.958 154.021 103.562 154.188 103.25C154.375 102.917 154.771 102.75 155.375 102.75C155.792 102.75 156.219 102.812 156.656 102.938C157.094 103.042 157.479 103.208 157.812 103.438C158.167 103.667 158.448 103.969 158.656 104.344C158.885 104.698 159 105.125 159 105.625C159.875 107.292 160.604 109.01 161.188 110.781C161.792 112.552 162.375 114.333 162.938 116.125C163.75 118.729 164.552 121.333 165.344 123.938C166.135 126.542 166.938 129.167 167.75 131.812C167.625 127.875 167.49 123.948 167.344 120.031C167.219 116.094 166.958 112.167 166.562 108.25C166.458 107.396 166.333 106.562 166.188 105.75C166.062 104.938 166 104.104 166 103.25C166 102.812 166.146 102.521 166.438 102.375C166.729 102.208 167.062 102.125 167.438 102.125C168.083 102.125 168.635 102.177 169.094 102.281C169.552 102.385 169.938 102.562 170.25 102.812C170.562 103.062 170.802 103.406 170.969 103.844C171.135 104.26 171.271 104.792 171.375 105.438C171.5 106.562 171.594 107.698 171.656 108.844C171.74 109.969 171.812 111.083 171.875 112.188C172.062 114.979 172.198 117.75 172.281 120.5C172.365 123.25 172.438 126.021 172.5 128.812C172.562 131.583 172.635 134.354 172.719 137.125C172.823 139.875 172.875 142.646 172.875 145.438ZM199.844 125.625C199.844 127.854 199.646 130.052 199.25 132.219C198.854 134.365 198.198 136.375 197.281 138.25C196.385 140.125 195.198 141.833 193.719 143.375C192.24 144.896 190.427 146.146 188.281 147.125C187.74 147.375 187.146 147.604 186.5 147.812C185.875 148.021 185.219 148.198 184.531 148.344C183.865 148.49 183.198 148.604 182.531 148.688C181.865 148.771 181.24 148.812 180.656 148.812C180.427 148.812 180.167 148.802 179.875 148.781C179.604 148.781 179.344 148.74 179.094 148.656C178.844 148.594 178.635 148.479 178.469 148.312C178.302 148.146 178.219 147.917 178.219 147.625C178.219 147.375 178.271 147.115 178.375 146.844C178.479 146.573 178.615 146.312 178.781 146.062C178.969 145.812 179.167 145.594 179.375 145.406C179.583 145.198 179.802 145.042 180.031 144.938C179.927 144.771 179.823 144.302 179.719 143.531C179.635 142.76 179.552 141.781 179.469 140.594C179.406 139.406 179.344 138.083 179.281 136.625C179.219 135.146 179.156 133.625 179.094 132.062C179.052 130.5 179.01 128.948 178.969 127.406C178.948 125.844 178.927 124.406 178.906 123.094C178.885 121.781 178.865 120.646 178.844 119.688C178.844 118.708 178.844 118 178.844 117.562C178.844 115.604 178.875 113.677 178.938 111.781C179 109.885 179.031 107.958 179.031 106C178.802 106 178.583 105.938 178.375 105.812C178.188 105.688 178.094 105.5 178.094 105.25C178.094 104.917 178.177 104.615 178.344 104.344C178.51 104.052 178.719 103.802 178.969 103.594C179.24 103.385 179.531 103.229 179.844 103.125C180.177 103 180.49 102.938 180.781 102.938C181.073 102.938 181.354 102.969 181.625 103.031C181.896 103.073 182.177 103.125 182.469 103.188C185.24 103.854 187.708 104.865 189.875 106.219C192.042 107.573 193.854 109.219 195.312 111.156C196.792 113.094 197.917 115.281 198.688 117.719C199.458 120.156 199.844 122.792 199.844 125.625ZM195.219 125.062C195.219 122.979 194.969 121.021 194.469 119.188C193.969 117.333 193.219 115.646 192.219 114.125C191.24 112.583 190 111.229 188.5 110.062C187.021 108.875 185.302 107.896 183.344 107.125V107.25C183.344 112.625 183.427 117.958 183.594 123.25C183.781 128.521 184.052 133.833 184.406 139.188C184.469 140 184.521 140.812 184.562 141.625C184.625 142.417 184.719 143.208 184.844 144C186.802 143.354 188.448 142.354 189.781 141C191.115 139.646 192.177 138.104 192.969 136.375C193.781 134.625 194.354 132.771 194.688 130.812C195.042 128.833 195.219 126.917 195.219 125.062ZM225.125 130.812C225.125 131.25 224.969 131.708 224.656 132.188C224.344 132.667 224 133.021 223.625 133.25C223.521 133.312 223.344 133.375 223.094 133.438C222.844 133.5 222.573 133.562 222.281 133.625C222.01 133.667 221.74 133.719 221.469 133.781C221.219 133.823 221.021 133.854 220.875 133.875L221.625 138.5C221.854 139.938 222.021 141.385 222.125 142.844C222.25 144.281 222.521 145.708 222.938 147.125C222.979 147.25 223.021 147.365 223.062 147.469C223.104 147.573 223.125 147.708 223.125 147.875C223.125 148.146 223.042 148.354 222.875 148.5C222.729 148.646 222.542 148.75 222.312 148.812C222.104 148.896 221.875 148.948 221.625 148.969C221.375 148.99 221.146 149 220.938 149H220.5C219.854 149 219.354 148.948 219 148.844C218.667 148.74 218.406 148.562 218.219 148.312C218.031 148.062 217.906 147.75 217.844 147.375C217.781 146.979 217.708 146.5 217.625 145.938C217.125 142.125 216.562 138.312 215.938 134.5C214.646 134.667 213.344 134.823 212.031 134.969C210.74 135.115 209.438 135.25 208.125 135.375L207.125 141.5C207.083 141.875 207.021 142.385 206.938 143.031C206.875 143.677 206.792 144.344 206.688 145.031C206.604 145.698 206.5 146.323 206.375 146.906C206.271 147.49 206.146 147.917 206 148.188C205.875 148.438 205.76 148.615 205.656 148.719C205.552 148.823 205.354 148.875 205.062 148.875C204.688 148.875 204.312 148.802 203.938 148.656C203.583 148.531 203.26 148.344 202.969 148.094C202.698 147.865 202.479 147.583 202.312 147.25C202.146 146.917 202.062 146.542 202.062 146.125C202.062 145.708 202.104 145.292 202.188 144.875C202.292 144.458 202.375 144.042 202.438 143.625C202.667 142.25 202.875 140.885 203.062 139.531C203.25 138.156 203.458 136.792 203.688 135.438C203.542 135.417 203.375 135.385 203.188 135.344C203 135.281 202.812 135.208 202.625 135.125C202.458 135.042 202.312 134.938 202.188 134.812C202.062 134.688 202 134.542 202 134.375C202 134.167 202.073 133.979 202.219 133.812C202.385 133.625 202.573 133.458 202.781 133.312C203.01 133.146 203.24 133.01 203.469 132.906C203.698 132.781 203.896 132.688 204.062 132.625C204.5 129.708 204.917 126.802 205.312 123.906C205.708 121.01 206.062 118.083 206.375 115.125C206.458 114.333 206.531 113.531 206.594 112.719C206.656 111.906 206.719 111.094 206.781 110.281C206.865 109.469 206.958 108.667 207.062 107.875C207.188 107.083 207.354 106.292 207.562 105.5C207.75 104.75 208.062 104.146 208.5 103.688C208.938 103.229 209.583 103 210.438 103C210.688 103 210.927 103.021 211.156 103.062C211.406 103.104 211.625 103.188 211.812 103.312C212.354 103.583 212.917 104.323 213.5 105.531C214.083 106.74 214.667 108.208 215.25 109.938C215.833 111.646 216.385 113.5 216.906 115.5C217.448 117.5 217.938 119.438 218.375 121.312C218.812 123.188 219.188 124.885 219.5 126.406C219.812 127.906 220.042 129.021 220.188 129.75C220.625 129.688 221.062 129.635 221.5 129.594C221.938 129.531 222.375 129.5 222.812 129.5C223.021 129.5 223.26 129.51 223.531 129.531C223.802 129.552 224.052 129.615 224.281 129.719C224.531 129.802 224.729 129.938 224.875 130.125C225.042 130.292 225.125 130.521 225.125 130.812ZM215.312 130.562C214.771 127.604 214.177 124.677 213.531 121.781C212.906 118.865 212.167 115.958 211.312 113.062C210.938 116.208 210.531 119.333 210.094 122.438C209.656 125.542 209.188 128.646 208.688 131.75C209.812 131.583 210.917 131.406 212 131.219C213.104 131.01 214.208 130.792 215.312 130.562Z" fill="white"/>
</svg>
