<svg width="283" height="168" viewBox="0 0 283 168" fill="none" xmlns="http://www.w3.org/2000/svg">
<rect width="283" height="168" fill="#3D4CF5"/>
<path d="M133.8 91.59V64.2053H150.2V91.59H170.7V55.0771H183L142 14L101 55.0771H113.3V91.59H133.8Z" fill="white"/>
<path d="M97.3438 144.5C97.3438 144.792 97.2083 145.042 96.9375 145.25C96.6667 145.458 96.3438 145.625 95.9688 145.75C95.5938 145.875 95.2083 145.969 94.8125 146.031C94.4375 146.094 94.1354 146.125 93.9062 146.125C93.8438 146.125 93.7917 146.135 93.75 146.156C93.7083 146.177 93.6562 146.167 93.5938 146.125C93.1771 146.042 92.8125 145.896 92.5 145.688C92.1875 145.5 91.9062 145.271 91.6562 145C91.4062 144.75 91.1667 144.469 90.9375 144.156C90.7083 143.844 90.4688 143.521 90.2188 143.188C88.5521 141.083 86.9792 138.927 85.5 136.719C84.0417 134.49 82.7188 132.146 81.5312 129.688L81.1562 130.125V142.188C81.1562 142.417 81.1458 142.677 81.125 142.969C81.1042 143.24 81.0521 143.5 80.9688 143.75C80.8854 144 80.7604 144.208 80.5938 144.375C80.4271 144.542 80.1979 144.625 79.9062 144.625C79.2396 144.625 78.6875 144.521 78.25 144.312C77.8333 144.104 77.5 143.823 77.25 143.469C77.0208 143.094 76.8646 142.656 76.7812 142.156C76.6979 141.656 76.6562 141.104 76.6562 140.5C76.6562 138.542 76.6354 136.594 76.5938 134.656C76.5521 132.719 76.5312 130.771 76.5312 128.812C76.5312 127.958 76.5625 127.125 76.625 126.312C76.6875 125.5 76.7188 124.667 76.7188 123.812C76.7188 120.833 76.6042 117.875 76.375 114.938C76.1458 111.979 75.9062 109.021 75.6562 106.062C75.5938 105.375 75.5208 104.688 75.4375 104C75.375 103.312 75.3438 102.625 75.3438 101.938C75.3438 101.438 75.5104 101.104 75.8438 100.938C76.1771 100.771 76.5312 100.688 76.9062 100.688C78.0729 100.688 78.9896 100.927 79.6562 101.406C80.3229 101.885 80.6562 102.75 80.6562 104C80.6562 105.896 80.7188 107.75 80.8438 109.562C80.9479 111.833 81.0104 114.083 81.0312 116.312C81.0729 118.542 81.1146 120.792 81.1562 123.062C83.4062 120.25 85.1771 117.229 86.4688 114C87.7604 110.75 88.7396 107.354 89.4062 103.812C89.4271 103.604 89.4583 103.344 89.5 103.031C89.5625 102.719 89.6354 102.417 89.7188 102.125C89.8229 101.812 89.9583 101.552 90.125 101.344C90.3125 101.115 90.5521 101 90.8438 101C91.1771 101 91.5208 101.062 91.875 101.188C92.2292 101.292 92.5417 101.448 92.8125 101.656C93.1042 101.865 93.3333 102.115 93.5 102.406C93.6875 102.698 93.7812 103.021 93.7812 103.375C93.7812 104.292 93.6667 105.177 93.4375 106.031C93.2292 106.885 93.0104 107.75 92.7812 108.625C92.3438 110.396 91.875 112.031 91.375 113.531C90.8958 115.031 90.3333 116.479 89.6875 117.875C89.0625 119.25 88.3333 120.615 87.5 121.969C86.6667 123.302 85.6771 124.688 84.5312 126.125L85.8438 128.75C86.9479 130.854 88.1771 132.906 89.5312 134.906C90.8854 136.885 92.3646 138.771 93.9688 140.562C94.5104 141.167 95.0625 141.729 95.625 142.25C96.2083 142.75 96.7188 143.333 97.1562 144C97.2812 144.125 97.3438 144.292 97.3438 144.5ZM116.469 140.5C116.469 141.104 116.312 141.677 116 142.219C115.688 142.74 115.26 143.125 114.719 143.375C114.552 143.458 114.146 143.542 113.5 143.625C112.854 143.688 112.156 143.75 111.406 143.812C110.656 143.875 109.938 143.938 109.25 144C108.583 144.062 108.115 144.104 107.844 144.125C107.781 144.479 107.615 144.729 107.344 144.875C107.073 145 106.781 145.062 106.469 145.062C106.115 145.062 105.708 145.01 105.25 144.906C104.792 144.802 104.385 144.688 104.031 144.562C103.094 144.688 102.146 144.823 101.188 144.969C100.229 145.115 99.2604 145.188 98.2812 145.188C97.5312 145.188 97.1562 144.833 97.1562 144.125C97.1562 143.417 97.3542 142.875 97.75 142.5C98.1458 142.125 98.625 141.844 99.1875 141.656C99.75 141.469 100.354 141.344 101 141.281C101.646 141.219 102.219 141.146 102.719 141.062C102.615 135.146 102.5 129.271 102.375 123.438C102.271 117.604 102.219 111.729 102.219 105.812C101.365 105.875 100.531 105.938 99.7188 106C98.9062 106.042 98.0938 106.062 97.2812 106.062C97.1146 106.062 96.9375 106.062 96.75 106.062C96.5625 106.042 96.3854 106.01 96.2188 105.969C96.0729 105.906 95.9479 105.823 95.8438 105.719C95.7188 105.594 95.6562 105.417 95.6562 105.188C95.6562 104.792 95.7396 104.448 95.9062 104.156C96.0729 103.844 96.2917 103.594 96.5625 103.406C96.8542 103.198 97.1667 103.031 97.5 102.906C97.8333 102.781 98.1771 102.688 98.5312 102.625C99.4271 102.458 100.333 102.323 101.25 102.219C102.188 102.094 103.115 101.979 104.031 101.875C104.969 101.75 105.896 101.625 106.812 101.5C107.75 101.375 108.677 101.208 109.594 101C110.469 100.812 111.344 100.573 112.219 100.281C113.094 99.9688 113.99 99.8125 114.906 99.8125C115.406 99.8125 115.74 100 115.906 100.375C116.073 100.729 116.156 101.125 116.156 101.562C116.156 101.917 116.115 102.26 116.031 102.594C115.969 102.906 115.823 103.208 115.594 103.5C115.469 103.667 115.188 103.833 114.75 104C114.333 104.146 113.823 104.281 113.219 104.406C112.635 104.531 112 104.656 111.312 104.781C110.646 104.885 109.99 104.99 109.344 105.094C108.719 105.177 108.146 105.25 107.625 105.312C107.104 105.375 106.719 105.417 106.469 105.438C106.698 108.333 106.854 111.229 106.938 114.125C107.042 117.021 107.125 119.917 107.188 122.812C107.25 125.708 107.312 128.604 107.375 131.5C107.438 134.396 107.552 137.292 107.719 140.188C108.906 140 110.104 139.823 111.312 139.656C112.521 139.469 113.74 139.375 114.969 139.375C115.323 139.375 115.656 139.458 115.969 139.625C116.302 139.771 116.469 140.062 116.469 140.5ZM138.656 102C138.656 102.75 138.438 103.365 138 103.844C137.583 104.323 137.01 104.646 136.281 104.812C135.115 105.062 133.917 105.198 132.688 105.219C131.479 105.219 130.281 105.25 129.094 105.312V111.5C129.094 116.75 129.25 121.99 129.562 127.219C129.896 132.427 130.427 137.646 131.156 142.875C131.219 143.188 131.281 143.5 131.344 143.812C131.427 144.125 131.469 144.438 131.469 144.75C131.469 145.25 131.333 145.615 131.062 145.844C130.812 146.073 130.448 146.188 129.969 146.188C129.594 146.188 129.125 146.135 128.562 146.031C128.021 145.948 127.594 145.812 127.281 145.625C126.865 145.375 126.594 145.125 126.469 144.875C126.365 144.604 126.281 144.25 126.219 143.812C125.99 142.333 125.833 140.854 125.75 139.375C125.667 137.896 125.573 136.417 125.469 134.938C125.219 131.771 125.01 128.615 124.844 125.469C124.677 122.323 124.594 119.167 124.594 116C124.594 114.271 124.604 112.552 124.625 110.844C124.646 109.135 124.656 107.396 124.656 105.625C123.365 105.75 122.062 105.875 120.75 106C119.458 106.125 118.156 106.188 116.844 106.188C116.531 106.188 116.281 106.115 116.094 105.969C115.885 105.802 115.781 105.562 115.781 105.25C115.781 104.521 116.021 103.958 116.5 103.562C116.979 103.146 117.552 102.854 118.219 102.688C119.281 102.458 120.365 102.312 121.469 102.25C122.573 102.167 123.677 102.062 124.781 101.938C124.781 101.729 124.792 101.531 124.812 101.344C124.833 101.135 124.875 100.958 124.938 100.812C125.021 100.646 125.135 100.51 125.281 100.406C125.427 100.302 125.635 100.25 125.906 100.25C126.406 100.25 126.917 100.365 127.438 100.594C127.958 100.823 128.365 101.146 128.656 101.562L133.844 101C134.344 100.938 134.844 100.875 135.344 100.812C135.844 100.729 136.344 100.688 136.844 100.688C137.073 100.688 137.292 100.698 137.5 100.719C137.729 100.74 137.927 100.802 138.094 100.906C138.26 100.99 138.396 101.125 138.5 101.312C138.604 101.479 138.656 101.708 138.656 102ZM159.938 142.438C159.938 142.812 159.896 143.188 159.812 143.562C159.75 143.917 159.625 144.24 159.438 144.531C159.271 144.802 159.042 145.021 158.75 145.188C158.458 145.354 158.083 145.438 157.625 145.438C157.062 145.438 156.604 145.312 156.25 145.062C155.917 144.833 155.604 144.5 155.312 144.062C154.917 143.5 154.562 142.854 154.25 142.125C153.938 141.375 153.656 140.615 153.406 139.844C153.156 139.052 152.917 138.271 152.688 137.5C152.479 136.708 152.271 135.979 152.062 135.312C150.938 131.812 149.885 128.323 148.906 124.844C147.948 121.365 146.917 117.875 145.812 114.375C145.708 118.896 145.625 123.396 145.562 127.875C145.521 132.354 145.5 136.854 145.5 141.375C145.5 141.604 145.49 141.865 145.469 142.156C145.448 142.448 145.396 142.729 145.312 143C145.229 143.25 145.094 143.469 144.906 143.656C144.74 143.844 144.5 143.938 144.188 143.938C143.125 143.938 142.312 143.656 141.75 143.094C141.208 142.51 140.938 141.688 140.938 140.625C140.938 134.771 140.948 128.969 140.969 123.219C140.99 117.469 141 111.688 141 105.875V101.438C141 100.958 141.083 100.562 141.25 100.25C141.438 99.9167 141.833 99.75 142.438 99.75C142.854 99.75 143.281 99.8125 143.719 99.9375C144.156 100.042 144.542 100.208 144.875 100.438C145.229 100.667 145.51 100.969 145.719 101.344C145.948 101.698 146.062 102.125 146.062 102.625C146.938 104.292 147.667 106.01 148.25 107.781C148.854 109.552 149.438 111.333 150 113.125C150.812 115.729 151.615 118.333 152.406 120.938C153.198 123.542 154 126.167 154.812 128.812C154.688 124.875 154.552 120.948 154.406 117.031C154.281 113.094 154.021 109.167 153.625 105.25C153.521 104.396 153.396 103.562 153.25 102.75C153.125 101.938 153.062 101.104 153.062 100.25C153.062 99.8125 153.208 99.5208 153.5 99.375C153.792 99.2083 154.125 99.125 154.5 99.125C155.146 99.125 155.698 99.1771 156.156 99.2812C156.615 99.3854 157 99.5625 157.312 99.8125C157.625 100.062 157.865 100.406 158.031 100.844C158.198 101.26 158.333 101.792 158.438 102.438C158.562 103.562 158.656 104.698 158.719 105.844C158.802 106.969 158.875 108.083 158.938 109.188C159.125 111.979 159.26 114.75 159.344 117.5C159.427 120.25 159.5 123.021 159.562 125.812C159.625 128.583 159.698 131.354 159.781 134.125C159.885 136.875 159.938 139.646 159.938 142.438ZM186.75 138.188C186.75 138.542 186.604 138.885 186.312 139.219C186.042 139.552 185.708 139.875 185.312 140.188C184.917 140.5 184.51 140.792 184.094 141.062C183.677 141.312 183.333 141.521 183.062 141.688C182.354 142.146 181.646 142.573 180.938 142.969C180.25 143.365 179.531 143.708 178.781 144C178.052 144.292 177.292 144.521 176.5 144.688C175.729 144.854 174.917 144.938 174.062 144.938L173.562 145C172.875 145 172.188 144.927 171.5 144.781C170.833 144.615 170.208 144.375 169.625 144.062C169.042 143.729 168.521 143.312 168.062 142.812C167.604 142.312 167.25 141.708 167 141C166.812 140.438 166.667 139.771 166.562 139C166.458 138.229 166.375 137.427 166.312 136.594C166.271 135.76 166.229 134.948 166.188 134.156C166.167 133.344 166.146 132.625 166.125 132C165.812 125.625 165.562 119.25 165.375 112.875C165.333 112.146 165.302 111.417 165.281 110.688C165.26 109.958 165.25 109.229 165.25 108.5C165.25 107.25 165.323 106.188 165.469 105.312C165.615 104.438 165.906 103.719 166.344 103.156C166.781 102.594 167.406 102.188 168.219 101.938C169.052 101.688 170.146 101.562 171.5 101.562C172.854 101.562 174.208 101.573 175.562 101.594C176.938 101.615 178.312 101.625 179.688 101.625C180.104 101.625 180.521 101.615 180.938 101.594C181.354 101.552 181.771 101.583 182.188 101.688C182.438 101.729 182.656 101.802 182.844 101.906C183.031 101.99 183.125 102.188 183.125 102.5C183.125 103.25 182.875 103.812 182.375 104.188C181.875 104.542 181.281 104.781 180.594 104.906C179.906 105.031 179.188 105.094 178.438 105.094C177.708 105.073 177.104 105.062 176.625 105.062H172.562C172.146 105.062 171.729 105.062 171.312 105.062C170.896 105.062 170.479 105.083 170.062 105.125C169.938 105.438 169.854 105.76 169.812 106.094C169.771 106.427 169.75 106.771 169.75 107.125C169.75 109.396 169.802 111.635 169.906 113.844C170.031 116.052 170.146 118.292 170.25 120.562C171.542 120.458 172.823 120.333 174.094 120.188C175.365 120.042 176.646 119.875 177.938 119.688C178.125 119.688 178.292 119.677 178.438 119.656C178.604 119.635 178.771 119.625 178.938 119.625C179.375 119.625 179.677 119.74 179.844 119.969C180.031 120.198 180.125 120.521 180.125 120.938C180.125 121.229 180.104 121.5 180.062 121.75C180.042 122 179.979 122.25 179.875 122.5C179.729 122.917 179.49 123.219 179.156 123.406C178.823 123.594 178.448 123.729 178.031 123.812C177.615 123.875 177.177 123.906 176.719 123.906C176.281 123.906 175.896 123.917 175.562 123.938C174.688 123.979 173.823 124.01 172.969 124.031C172.135 124.052 171.292 124.083 170.438 124.125C170.458 124.562 170.49 125.219 170.531 126.094C170.573 126.969 170.615 127.958 170.656 129.062C170.719 130.146 170.781 131.271 170.844 132.438C170.927 133.604 171.01 134.708 171.094 135.75C171.177 136.771 171.271 137.667 171.375 138.438C171.479 139.208 171.583 139.729 171.688 140C171.917 140.438 172.177 140.729 172.469 140.875C172.76 141 173.146 141.062 173.625 141.062C174.396 141.062 175.208 140.917 176.062 140.625C176.917 140.312 177.75 139.927 178.562 139.469C179.375 138.99 180.146 138.469 180.875 137.906C181.625 137.344 182.271 136.792 182.812 136.25C183.042 136.062 183.271 135.875 183.5 135.688C183.729 135.479 184 135.375 184.312 135.375C184.625 135.375 184.927 135.469 185.219 135.656C185.51 135.844 185.771 136.083 186 136.375C186.229 136.646 186.406 136.948 186.531 137.281C186.677 137.615 186.75 137.917 186.75 138.188ZM207.844 102C207.844 102.75 207.625 103.365 207.188 103.844C206.771 104.323 206.198 104.646 205.469 104.812C204.302 105.062 203.104 105.198 201.875 105.219C200.667 105.219 199.469 105.25 198.281 105.312V111.5C198.281 116.75 198.438 121.99 198.75 127.219C199.083 132.427 199.615 137.646 200.344 142.875C200.406 143.188 200.469 143.5 200.531 143.812C200.615 144.125 200.656 144.438 200.656 144.75C200.656 145.25 200.521 145.615 200.25 145.844C200 146.073 199.635 146.188 199.156 146.188C198.781 146.188 198.312 146.135 197.75 146.031C197.208 145.948 196.781 145.812 196.469 145.625C196.052 145.375 195.781 145.125 195.656 144.875C195.552 144.604 195.469 144.25 195.406 143.812C195.177 142.333 195.021 140.854 194.938 139.375C194.854 137.896 194.76 136.417 194.656 134.938C194.406 131.771 194.198 128.615 194.031 125.469C193.865 122.323 193.781 119.167 193.781 116C193.781 114.271 193.792 112.552 193.812 110.844C193.833 109.135 193.844 107.396 193.844 105.625C192.552 105.75 191.25 105.875 189.938 106C188.646 106.125 187.344 106.188 186.031 106.188C185.719 106.188 185.469 106.115 185.281 105.969C185.073 105.802 184.969 105.562 184.969 105.25C184.969 104.521 185.208 103.958 185.688 103.562C186.167 103.146 186.74 102.854 187.406 102.688C188.469 102.458 189.552 102.312 190.656 102.25C191.76 102.167 192.865 102.062 193.969 101.938C193.969 101.729 193.979 101.531 194 101.344C194.021 101.135 194.062 100.958 194.125 100.812C194.208 100.646 194.323 100.51 194.469 100.406C194.615 100.302 194.823 100.25 195.094 100.25C195.594 100.25 196.104 100.365 196.625 100.594C197.146 100.823 197.552 101.146 197.844 101.562L203.031 101C203.531 100.938 204.031 100.875 204.531 100.812C205.031 100.729 205.531 100.688 206.031 100.688C206.26 100.688 206.479 100.698 206.688 100.719C206.917 100.74 207.115 100.802 207.281 100.906C207.448 100.99 207.583 101.125 207.688 101.312C207.792 101.479 207.844 101.708 207.844 102Z" fill="white"/>
</svg>
