<svg width="283" height="168" viewBox="0 0 283 168" fill="none" xmlns="http://www.w3.org/2000/svg">
<rect width="283" height="168" fill="#3D4CF5"/>
<rect width="283" height="168" fill="#3D4CF5"/>
<path d="M82.0312 102C82.0312 102.75 81.8125 103.365 81.375 103.844C80.9583 104.323 80.3854 104.646 79.6562 104.812C78.4896 105.062 77.2917 105.198 76.0625 105.219C74.8542 105.219 73.6562 105.25 72.4688 105.312V111.5C72.4688 116.75 72.625 121.99 72.9375 127.219C73.2708 132.427 73.8021 137.646 74.5312 142.875C74.5938 143.188 74.6562 143.5 74.7188 143.812C74.8021 144.125 74.8438 144.438 74.8438 144.75C74.8438 145.25 74.7083 145.615 74.4375 145.844C74.1875 146.073 73.8229 146.188 73.3438 146.188C72.9688 146.188 72.5 146.135 71.9375 146.031C71.3958 145.948 70.9688 145.812 70.6562 145.625C70.2396 145.375 69.9688 145.125 69.8438 144.875C69.7396 144.604 69.6562 144.25 69.5938 143.812C69.3646 142.333 69.2083 140.854 69.125 139.375C69.0417 137.896 68.9479 136.417 68.8438 134.938C68.5938 131.771 68.3854 128.615 68.2188 125.469C68.0521 122.323 67.9688 119.167 67.9688 116C67.9688 114.271 67.9792 112.552 68 110.844C68.0208 109.135 68.0312 107.396 68.0312 105.625C66.7396 105.75 65.4375 105.875 64.125 106C62.8333 106.125 61.5312 106.188 60.2188 106.188C59.9062 106.188 59.6562 106.115 59.4688 105.969C59.2604 105.802 59.1562 105.562 59.1562 105.25C59.1562 104.521 59.3958 103.958 59.875 103.562C60.3542 103.146 60.9271 102.854 61.5938 102.688C62.6562 102.458 63.7396 102.312 64.8438 102.25C65.9479 102.167 67.0521 102.062 68.1562 101.938C68.1562 101.729 68.1667 101.531 68.1875 101.344C68.2083 101.135 68.25 100.958 68.3125 100.812C68.3958 100.646 68.5104 100.51 68.6562 100.406C68.8021 100.302 69.0104 100.25 69.2812 100.25C69.7812 100.25 70.2917 100.365 70.8125 100.594C71.3333 100.823 71.7396 101.146 72.0312 101.562L77.2188 101C77.7188 100.938 78.2188 100.875 78.7188 100.812C79.2188 100.729 79.7188 100.688 80.2188 100.688C80.4479 100.688 80.6667 100.698 80.875 100.719C81.1042 100.74 81.3021 100.802 81.4688 100.906C81.6354 100.99 81.7708 101.125 81.875 101.312C81.9792 101.479 82.0312 101.708 82.0312 102ZM105.188 138.188C105.188 138.542 105.042 138.885 104.75 139.219C104.479 139.552 104.146 139.875 103.75 140.188C103.354 140.5 102.948 140.792 102.531 141.062C102.115 141.312 101.771 141.521 101.5 141.688C100.792 142.146 100.083 142.573 99.375 142.969C98.6875 143.365 97.9688 143.708 97.2188 144C96.4896 144.292 95.7292 144.521 94.9375 144.688C94.1667 144.854 93.3542 144.938 92.5 144.938L92 145C91.3125 145 90.625 144.927 89.9375 144.781C89.2708 144.615 88.6458 144.375 88.0625 144.062C87.4792 143.729 86.9583 143.312 86.5 142.812C86.0417 142.312 85.6875 141.708 85.4375 141C85.25 140.438 85.1042 139.771 85 139C84.8958 138.229 84.8125 137.427 84.75 136.594C84.7083 135.76 84.6667 134.948 84.625 134.156C84.6042 133.344 84.5833 132.625 84.5625 132C84.25 125.625 84 119.25 83.8125 112.875C83.7708 112.146 83.7396 111.417 83.7188 110.688C83.6979 109.958 83.6875 109.229 83.6875 108.5C83.6875 107.25 83.7604 106.188 83.9062 105.312C84.0521 104.438 84.3438 103.719 84.7812 103.156C85.2188 102.594 85.8438 102.188 86.6562 101.938C87.4896 101.688 88.5833 101.562 89.9375 101.562C91.2917 101.562 92.6458 101.573 94 101.594C95.375 101.615 96.75 101.625 98.125 101.625C98.5417 101.625 98.9583 101.615 99.375 101.594C99.7917 101.552 100.208 101.583 100.625 101.688C100.875 101.729 101.094 101.802 101.281 101.906C101.469 101.99 101.562 102.188 101.562 102.5C101.562 103.25 101.312 103.812 100.812 104.188C100.312 104.542 99.7188 104.781 99.0312 104.906C98.3438 105.031 97.625 105.094 96.875 105.094C96.1458 105.073 95.5417 105.062 95.0625 105.062H91C90.5833 105.062 90.1667 105.062 89.75 105.062C89.3333 105.062 88.9167 105.083 88.5 105.125C88.375 105.438 88.2917 105.76 88.25 106.094C88.2083 106.427 88.1875 106.771 88.1875 107.125C88.1875 109.396 88.2396 111.635 88.3438 113.844C88.4688 116.052 88.5833 118.292 88.6875 120.562C89.9792 120.458 91.2604 120.333 92.5312 120.188C93.8021 120.042 95.0833 119.875 96.375 119.688C96.5625 119.688 96.7292 119.677 96.875 119.656C97.0417 119.635 97.2083 119.625 97.375 119.625C97.8125 119.625 98.1146 119.74 98.2812 119.969C98.4688 120.198 98.5625 120.521 98.5625 120.938C98.5625 121.229 98.5417 121.5 98.5 121.75C98.4792 122 98.4167 122.25 98.3125 122.5C98.1667 122.917 97.9271 123.219 97.5938 123.406C97.2604 123.594 96.8854 123.729 96.4688 123.812C96.0521 123.875 95.6146 123.906 95.1562 123.906C94.7188 123.906 94.3333 123.917 94 123.938C93.125 123.979 92.2604 124.01 91.4062 124.031C90.5729 124.052 89.7292 124.083 88.875 124.125C88.8958 124.562 88.9271 125.219 88.9688 126.094C89.0104 126.969 89.0521 127.958 89.0938 129.062C89.1562 130.146 89.2188 131.271 89.2812 132.438C89.3646 133.604 89.4479 134.708 89.5312 135.75C89.6146 136.771 89.7083 137.667 89.8125 138.438C89.9167 139.208 90.0208 139.729 90.125 140C90.3542 140.438 90.6146 140.729 90.9062 140.875C91.1979 141 91.5833 141.062 92.0625 141.062C92.8333 141.062 93.6458 140.917 94.5 140.625C95.3542 140.312 96.1875 139.927 97 139.469C97.8125 138.99 98.5833 138.469 99.3125 137.906C100.062 137.344 100.708 136.792 101.25 136.25C101.479 136.062 101.708 135.875 101.938 135.688C102.167 135.479 102.438 135.375 102.75 135.375C103.062 135.375 103.365 135.469 103.656 135.656C103.948 135.844 104.208 136.083 104.438 136.375C104.667 136.646 104.844 136.948 104.969 137.281C105.115 137.615 105.188 137.917 105.188 138.188ZM131.25 144.875C131.25 145.125 131.125 145.333 130.875 145.5C130.625 145.667 130.323 145.802 129.969 145.906C129.635 146.01 129.292 146.083 128.938 146.125C128.604 146.167 128.354 146.188 128.188 146.188C127.771 146.188 127.427 146.146 127.156 146.062C126.906 146 126.604 145.875 126.25 145.688C126.146 145.625 125.896 145.365 125.5 144.906C125.125 144.427 124.646 143.812 124.062 143.062C123.5 142.312 122.854 141.458 122.125 140.5C121.417 139.542 120.677 138.562 119.906 137.562C119.156 136.542 118.406 135.531 117.656 134.531C116.927 133.51 116.25 132.583 115.625 131.75C115 130.896 114.458 130.156 114 129.531C113.562 128.885 113.25 128.438 113.062 128.188L112.875 128.25C113 130.729 113.156 133.208 113.344 135.688C113.552 138.146 113.896 140.583 114.375 143C114.438 143.25 114.5 143.51 114.562 143.781C114.646 144.052 114.688 144.333 114.688 144.625C114.688 145.104 114.531 145.406 114.219 145.531C113.906 145.677 113.562 145.75 113.188 145.75C112.979 145.75 112.729 145.74 112.438 145.719C112.146 145.698 111.844 145.656 111.531 145.594C111.219 145.531 110.927 145.448 110.656 145.344C110.406 145.26 110.208 145.146 110.062 145C109.771 144.75 109.583 144.49 109.5 144.219C109.438 143.948 109.375 143.625 109.312 143.25C108.708 139.062 108.323 134.865 108.156 130.656C108.01 126.427 107.938 122.208 107.938 118C107.938 116.167 107.948 114.365 107.969 112.594C107.99 110.823 108.021 109.021 108.062 107.188C107.812 107.167 107.573 107.083 107.344 106.938C107.135 106.792 106.948 106.615 106.781 106.406C106.615 106.177 106.479 105.948 106.375 105.719C106.292 105.469 106.25 105.229 106.25 105C106.25 104.771 106.302 104.542 106.406 104.312C106.531 104.083 106.677 103.875 106.844 103.688C107.031 103.5 107.229 103.323 107.438 103.156C107.646 102.99 107.833 102.854 108 102.75V102.188C108 101.979 108 101.74 108 101.469C108.021 101.198 108.062 100.948 108.125 100.719C108.208 100.469 108.333 100.271 108.5 100.125C108.667 99.9583 108.917 99.875 109.25 99.875C109.688 99.875 110.125 99.9479 110.562 100.094C111 100.24 111.375 100.5 111.688 100.875C113.25 100.25 114.896 99.9375 116.625 99.9375C118.146 99.9375 119.531 100.24 120.781 100.844C122.031 101.448 123.094 102.26 123.969 103.281C124.865 104.302 125.552 105.479 126.031 106.812C126.51 108.146 126.75 109.542 126.75 111C126.75 112.562 126.458 114.083 125.875 115.562C125.292 117.021 124.531 118.406 123.594 119.719C122.656 121.031 121.583 122.24 120.375 123.344C119.188 124.427 117.979 125.375 116.75 126.188C118.708 128.792 120.688 131.375 122.688 133.938C124.708 136.479 126.771 139.021 128.875 141.562C129 141.708 129.188 141.927 129.438 142.219C129.708 142.51 129.979 142.833 130.25 143.188C130.521 143.521 130.75 143.844 130.938 144.156C131.146 144.469 131.25 144.708 131.25 144.875ZM122.125 110.5C122.125 109.729 121.99 108.927 121.719 108.094C121.448 107.26 121.062 106.51 120.562 105.844C120.062 105.156 119.458 104.594 118.75 104.156C118.062 103.719 117.292 103.5 116.438 103.5C115.75 103.5 115.062 103.604 114.375 103.812C113.708 104 113.062 104.25 112.438 104.562C112.479 107.667 112.51 110.771 112.531 113.875C112.573 116.979 112.625 120.083 112.688 123.188L113.25 123.25C114.333 122.646 115.396 121.885 116.438 120.969C117.5 120.052 118.448 119.031 119.281 117.906C120.135 116.781 120.823 115.594 121.344 114.344C121.865 113.073 122.125 111.792 122.125 110.5ZM155.688 144.875C155.688 145.125 155.562 145.333 155.312 145.5C155.062 145.667 154.76 145.802 154.406 145.906C154.073 146.01 153.729 146.083 153.375 146.125C153.042 146.167 152.792 146.188 152.625 146.188C152.208 146.188 151.865 146.146 151.594 146.062C151.344 146 151.042 145.875 150.688 145.688C150.583 145.625 150.333 145.365 149.938 144.906C149.562 144.427 149.083 143.812 148.5 143.062C147.938 142.312 147.292 141.458 146.562 140.5C145.854 139.542 145.115 138.562 144.344 137.562C143.594 136.542 142.844 135.531 142.094 134.531C141.365 133.51 140.688 132.583 140.062 131.75C139.438 130.896 138.896 130.156 138.438 129.531C138 128.885 137.688 128.438 137.5 128.188L137.312 128.25C137.438 130.729 137.594 133.208 137.781 135.688C137.99 138.146 138.333 140.583 138.812 143C138.875 143.25 138.938 143.51 139 143.781C139.083 144.052 139.125 144.333 139.125 144.625C139.125 145.104 138.969 145.406 138.656 145.531C138.344 145.677 138 145.75 137.625 145.75C137.417 145.75 137.167 145.74 136.875 145.719C136.583 145.698 136.281 145.656 135.969 145.594C135.656 145.531 135.365 145.448 135.094 145.344C134.844 145.26 134.646 145.146 134.5 145C134.208 144.75 134.021 144.49 133.938 144.219C133.875 143.948 133.812 143.625 133.75 143.25C133.146 139.062 132.76 134.865 132.594 130.656C132.448 126.427 132.375 122.208 132.375 118C132.375 116.167 132.385 114.365 132.406 112.594C132.427 110.823 132.458 109.021 132.5 107.188C132.25 107.167 132.01 107.083 131.781 106.938C131.573 106.792 131.385 106.615 131.219 106.406C131.052 106.177 130.917 105.948 130.812 105.719C130.729 105.469 130.688 105.229 130.688 105C130.688 104.771 130.74 104.542 130.844 104.312C130.969 104.083 131.115 103.875 131.281 103.688C131.469 103.5 131.667 103.323 131.875 103.156C132.083 102.99 132.271 102.854 132.438 102.75V102.188C132.438 101.979 132.438 101.74 132.438 101.469C132.458 101.198 132.5 100.948 132.562 100.719C132.646 100.469 132.771 100.271 132.938 100.125C133.104 99.9583 133.354 99.875 133.688 99.875C134.125 99.875 134.562 99.9479 135 100.094C135.438 100.24 135.812 100.5 136.125 100.875C137.688 100.25 139.333 99.9375 141.062 99.9375C142.583 99.9375 143.969 100.24 145.219 100.844C146.469 101.448 147.531 102.26 148.406 103.281C149.302 104.302 149.99 105.479 150.469 106.812C150.948 108.146 151.188 109.542 151.188 111C151.188 112.562 150.896 114.083 150.312 115.562C149.729 117.021 148.969 118.406 148.031 119.719C147.094 121.031 146.021 122.24 144.812 123.344C143.625 124.427 142.417 125.375 141.188 126.188C143.146 128.792 145.125 131.375 147.125 133.938C149.146 136.479 151.208 139.021 153.312 141.562C153.438 141.708 153.625 141.927 153.875 142.219C154.146 142.51 154.417 142.833 154.688 143.188C154.958 143.521 155.188 143.844 155.375 144.156C155.583 144.469 155.688 144.708 155.688 144.875ZM146.562 110.5C146.562 109.729 146.427 108.927 146.156 108.094C145.885 107.26 145.5 106.51 145 105.844C144.5 105.156 143.896 104.594 143.188 104.156C142.5 103.719 141.729 103.5 140.875 103.5C140.188 103.5 139.5 103.604 138.812 103.812C138.146 104 137.5 104.25 136.875 104.562C136.917 107.667 136.948 110.771 136.969 113.875C137.01 116.979 137.062 120.083 137.125 123.188L137.688 123.25C138.771 122.646 139.833 121.885 140.875 120.969C141.938 120.052 142.885 119.031 143.719 117.906C144.573 116.781 145.26 115.594 145.781 114.344C146.302 113.073 146.562 111.792 146.562 110.5ZM177.375 138.188C177.375 138.542 177.229 138.885 176.938 139.219C176.667 139.552 176.333 139.875 175.938 140.188C175.542 140.5 175.135 140.792 174.719 141.062C174.302 141.312 173.958 141.521 173.688 141.688C172.979 142.146 172.271 142.573 171.562 142.969C170.875 143.365 170.156 143.708 169.406 144C168.677 144.292 167.917 144.521 167.125 144.688C166.354 144.854 165.542 144.938 164.688 144.938L164.188 145C163.5 145 162.812 144.927 162.125 144.781C161.458 144.615 160.833 144.375 160.25 144.062C159.667 143.729 159.146 143.312 158.688 142.812C158.229 142.312 157.875 141.708 157.625 141C157.438 140.438 157.292 139.771 157.188 139C157.083 138.229 157 137.427 156.938 136.594C156.896 135.76 156.854 134.948 156.812 134.156C156.792 133.344 156.771 132.625 156.75 132C156.438 125.625 156.188 119.25 156 112.875C155.958 112.146 155.927 111.417 155.906 110.688C155.885 109.958 155.875 109.229 155.875 108.5C155.875 107.25 155.948 106.188 156.094 105.312C156.24 104.438 156.531 103.719 156.969 103.156C157.406 102.594 158.031 102.188 158.844 101.938C159.677 101.688 160.771 101.562 162.125 101.562C163.479 101.562 164.833 101.573 166.188 101.594C167.562 101.615 168.938 101.625 170.312 101.625C170.729 101.625 171.146 101.615 171.562 101.594C171.979 101.552 172.396 101.583 172.812 101.688C173.062 101.729 173.281 101.802 173.469 101.906C173.656 101.99 173.75 102.188 173.75 102.5C173.75 103.25 173.5 103.812 173 104.188C172.5 104.542 171.906 104.781 171.219 104.906C170.531 105.031 169.812 105.094 169.062 105.094C168.333 105.073 167.729 105.062 167.25 105.062H163.188C162.771 105.062 162.354 105.062 161.938 105.062C161.521 105.062 161.104 105.083 160.688 105.125C160.562 105.438 160.479 105.76 160.438 106.094C160.396 106.427 160.375 106.771 160.375 107.125C160.375 109.396 160.427 111.635 160.531 113.844C160.656 116.052 160.771 118.292 160.875 120.562C162.167 120.458 163.448 120.333 164.719 120.188C165.99 120.042 167.271 119.875 168.562 119.688C168.75 119.688 168.917 119.677 169.062 119.656C169.229 119.635 169.396 119.625 169.562 119.625C170 119.625 170.302 119.74 170.469 119.969C170.656 120.198 170.75 120.521 170.75 120.938C170.75 121.229 170.729 121.5 170.688 121.75C170.667 122 170.604 122.25 170.5 122.5C170.354 122.917 170.115 123.219 169.781 123.406C169.448 123.594 169.073 123.729 168.656 123.812C168.24 123.875 167.802 123.906 167.344 123.906C166.906 123.906 166.521 123.917 166.188 123.938C165.312 123.979 164.448 124.01 163.594 124.031C162.76 124.052 161.917 124.083 161.062 124.125C161.083 124.562 161.115 125.219 161.156 126.094C161.198 126.969 161.24 127.958 161.281 129.062C161.344 130.146 161.406 131.271 161.469 132.438C161.552 133.604 161.635 134.708 161.719 135.75C161.802 136.771 161.896 137.667 162 138.438C162.104 139.208 162.208 139.729 162.312 140C162.542 140.438 162.802 140.729 163.094 140.875C163.385 141 163.771 141.062 164.25 141.062C165.021 141.062 165.833 140.917 166.688 140.625C167.542 140.312 168.375 139.927 169.188 139.469C170 138.99 170.771 138.469 171.5 137.906C172.25 137.344 172.896 136.792 173.438 136.25C173.667 136.062 173.896 135.875 174.125 135.688C174.354 135.479 174.625 135.375 174.938 135.375C175.25 135.375 175.552 135.469 175.844 135.656C176.135 135.844 176.396 136.083 176.625 136.375C176.854 136.646 177.031 136.948 177.156 137.281C177.302 137.615 177.375 137.917 177.375 138.188ZM198.812 142.438C198.812 142.812 198.771 143.188 198.688 143.562C198.625 143.917 198.5 144.24 198.312 144.531C198.146 144.802 197.917 145.021 197.625 145.188C197.333 145.354 196.958 145.438 196.5 145.438C195.938 145.438 195.479 145.312 195.125 145.062C194.792 144.833 194.479 144.5 194.188 144.062C193.792 143.5 193.438 142.854 193.125 142.125C192.812 141.375 192.531 140.615 192.281 139.844C192.031 139.052 191.792 138.271 191.562 137.5C191.354 136.708 191.146 135.979 190.938 135.312C189.812 131.812 188.76 128.323 187.781 124.844C186.823 121.365 185.792 117.875 184.688 114.375C184.583 118.896 184.5 123.396 184.438 127.875C184.396 132.354 184.375 136.854 184.375 141.375C184.375 141.604 184.365 141.865 184.344 142.156C184.323 142.448 184.271 142.729 184.188 143C184.104 143.25 183.969 143.469 183.781 143.656C183.615 143.844 183.375 143.938 183.062 143.938C182 143.938 181.188 143.656 180.625 143.094C180.083 142.51 179.812 141.688 179.812 140.625C179.812 134.771 179.823 128.969 179.844 123.219C179.865 117.469 179.875 111.688 179.875 105.875V101.438C179.875 100.958 179.958 100.562 180.125 100.25C180.312 99.9167 180.708 99.75 181.312 99.75C181.729 99.75 182.156 99.8125 182.594 99.9375C183.031 100.042 183.417 100.208 183.75 100.438C184.104 100.667 184.385 100.969 184.594 101.344C184.823 101.698 184.938 102.125 184.938 102.625C185.812 104.292 186.542 106.01 187.125 107.781C187.729 109.552 188.312 111.333 188.875 113.125C189.688 115.729 190.49 118.333 191.281 120.938C192.073 123.542 192.875 126.167 193.688 128.812C193.562 124.875 193.427 120.948 193.281 117.031C193.156 113.094 192.896 109.167 192.5 105.25C192.396 104.396 192.271 103.562 192.125 102.75C192 101.938 191.938 101.104 191.938 100.25C191.938 99.8125 192.083 99.5208 192.375 99.375C192.667 99.2083 193 99.125 193.375 99.125C194.021 99.125 194.573 99.1771 195.031 99.2812C195.49 99.3854 195.875 99.5625 196.188 99.8125C196.5 100.062 196.74 100.406 196.906 100.844C197.073 101.26 197.208 101.792 197.312 102.438C197.438 103.562 197.531 104.698 197.594 105.844C197.677 106.969 197.75 108.083 197.812 109.188C198 111.979 198.135 114.75 198.219 117.5C198.302 120.25 198.375 123.021 198.438 125.812C198.5 128.583 198.573 131.354 198.656 134.125C198.76 136.875 198.812 139.646 198.812 142.438ZM224.344 121C224.344 121.875 224.323 122.896 224.281 124.062C224.26 125.208 224.188 126.438 224.062 127.75C223.958 129.062 223.792 130.406 223.562 131.781C223.354 133.156 223.073 134.5 222.719 135.812C222.365 137.125 221.927 138.365 221.406 139.531C220.885 140.698 220.26 141.719 219.531 142.594C218.802 143.469 217.958 144.167 217 144.688C216.042 145.188 214.948 145.438 213.719 145.438C212.49 145.438 211.375 145.156 210.375 144.594C209.375 144.01 208.531 143.25 207.844 142.312C207.281 141.562 206.781 140.646 206.344 139.562C205.927 138.458 205.552 137.26 205.219 135.969C204.906 134.677 204.635 133.333 204.406 131.938C204.177 130.542 203.99 129.167 203.844 127.812C203.719 126.458 203.625 125.177 203.562 123.969C203.5 122.74 203.469 121.667 203.469 120.75C203.469 119.208 203.531 117.594 203.656 115.906C203.802 114.219 204.062 112.552 204.438 110.906C204.812 109.24 205.323 107.635 205.969 106.094C206.615 104.552 207.448 103.167 208.469 101.938C208.573 101.812 208.698 101.667 208.844 101.5C209.01 101.333 209.188 101.177 209.375 101.031C209.562 100.865 209.75 100.729 209.938 100.625C210.146 100.5 210.344 100.438 210.531 100.438C210.719 100.438 210.896 100.49 211.062 100.594C211.25 100.698 211.406 100.833 211.531 101C211.969 100.75 212.427 100.573 212.906 100.469C213.406 100.365 213.906 100.312 214.406 100.312C215.927 100.312 217.229 100.677 218.312 101.406C219.417 102.115 220.333 103.052 221.062 104.219C221.792 105.385 222.375 106.708 222.812 108.188C223.25 109.667 223.583 111.177 223.812 112.719C224.042 114.26 224.188 115.75 224.25 117.188C224.312 118.625 224.344 119.896 224.344 121ZM219.469 122.375C219.469 121.833 219.448 121.01 219.406 119.906C219.385 118.781 219.312 117.552 219.188 116.219C219.062 114.865 218.885 113.479 218.656 112.062C218.448 110.646 218.156 109.365 217.781 108.219C217.406 107.052 216.938 106.104 216.375 105.375C215.833 104.625 215.177 104.25 214.406 104.25C214.094 104.25 213.812 104.396 213.562 104.688C213.312 104.979 213.073 105.354 212.844 105.812C212.615 106.271 212.406 106.771 212.219 107.312C212.031 107.854 211.844 108.375 211.656 108.875C211.469 109.375 211.292 109.823 211.125 110.219C210.958 110.615 210.781 110.896 210.594 111.062C210.531 111.125 210.427 111.167 210.281 111.188C210.156 111.188 210.031 111.188 209.906 111.188C209.552 111.188 209.219 111.125 208.906 111C208.552 112.417 208.302 113.833 208.156 115.25C208.031 116.646 207.969 118.062 207.969 119.5C207.969 119.938 207.99 120.594 208.031 121.469C208.073 122.344 208.135 123.344 208.219 124.469C208.302 125.594 208.417 126.802 208.562 128.094C208.708 129.385 208.885 130.677 209.094 131.969C209.302 133.24 209.542 134.469 209.812 135.656C210.104 136.823 210.438 137.865 210.812 138.781C211.188 139.677 211.604 140.396 212.062 140.938C212.521 141.479 213.031 141.75 213.594 141.75C213.906 141.75 214.188 141.667 214.438 141.5C214.688 141.312 214.927 141.125 215.156 140.938C215.781 140.375 216.323 139.635 216.781 138.719C217.24 137.802 217.625 136.792 217.938 135.688C218.25 134.583 218.51 133.427 218.719 132.219C218.927 130.99 219.083 129.781 219.188 128.594C219.292 127.406 219.365 126.281 219.406 125.219C219.448 124.135 219.469 123.188 219.469 122.375Z" fill="white"/>
<path d="M147 32.4584L134.708 48.8334L144.083 61.3334C145.458 63.1667 145.083 65.7917 143.25 67.1667C142.814 67.4982 142.316 67.7398 141.785 67.8775C141.254 68.0151 140.702 68.0461 140.159 67.9685C139.617 67.891 139.095 67.7066 138.624 67.4259C138.153 67.1452 137.743 66.7739 137.417 66.3334C133.042 60.5001 127.792 53.5417 124.5 49.0834C122.833 46.8751 119.5 46.8751 117.833 49.0834L101.167 71.2917C99.125 74.0834 101.083 78.0001 104.5 78.0001H179.5C182.917 78.0001 184.875 74.0834 182.833 71.3334L153.667 32.4584C153.282 31.9356 152.78 31.5105 152.201 31.2176C151.622 30.9246 150.982 30.772 150.333 30.772C149.684 30.772 149.045 30.9246 148.466 31.2176C147.886 31.5105 147.384 31.9356 147 32.4584Z" fill="white"/>
</svg>
