<svg width="283" height="168" viewBox="0 0 283 168" fill="none" xmlns="http://www.w3.org/2000/svg">
<rect width="283" height="168" fill="#3D4CF5"/>
<path d="M99.25 140.252C99.25 140.551 99.127 140.841 98.8809 141.122C98.6523 141.403 98.3711 141.676 98.0371 141.939C97.7031 142.203 97.3604 142.449 97.0088 142.678C96.6572 142.889 96.3672 143.064 96.1387 143.205C95.541 143.592 94.9434 143.952 94.3457 144.286C93.7656 144.62 93.1592 144.91 92.5264 145.156C91.9111 145.402 91.2695 145.596 90.6016 145.736C89.9512 145.877 89.2656 145.947 88.5449 145.947L88.123 146C87.543 146 86.9629 145.938 86.3828 145.815C85.8203 145.675 85.293 145.473 84.8008 145.209C84.3086 144.928 83.8691 144.576 83.4824 144.154C83.0957 143.732 82.7969 143.223 82.5859 142.625C82.4277 142.15 82.3047 141.588 82.2168 140.938C82.1289 140.287 82.0586 139.61 82.0059 138.907C81.9707 138.204 81.9355 137.519 81.9004 136.851C81.8828 136.165 81.8652 135.559 81.8477 135.031C81.584 129.652 81.373 124.273 81.2148 118.895C81.1797 118.279 81.1533 117.664 81.1357 117.049C81.1182 116.434 81.1094 115.818 81.1094 115.203C81.1094 114.148 81.1709 113.252 81.2939 112.514C81.417 111.775 81.6631 111.169 82.0322 110.694C82.4014 110.22 82.9287 109.877 83.6143 109.666C84.3174 109.455 85.2402 109.35 86.3828 109.35C87.5254 109.35 88.668 109.358 89.8105 109.376C90.9707 109.394 92.1309 109.402 93.291 109.402C93.6426 109.402 93.9941 109.394 94.3457 109.376C94.6973 109.341 95.0488 109.367 95.4004 109.455C95.6113 109.49 95.7959 109.552 95.9541 109.64C96.1123 109.71 96.1914 109.877 96.1914 110.141C96.1914 110.773 95.9805 111.248 95.5586 111.564C95.1367 111.863 94.6357 112.065 94.0557 112.171C93.4756 112.276 92.8691 112.329 92.2363 112.329C91.6211 112.312 91.1113 112.303 90.707 112.303H87.2793C86.9277 112.303 86.5762 112.303 86.2246 112.303C85.873 112.303 85.5215 112.32 85.1699 112.355C85.0645 112.619 84.9941 112.892 84.959 113.173C84.9238 113.454 84.9062 113.744 84.9062 114.043C84.9062 115.959 84.9502 117.849 85.0381 119.712C85.1436 121.575 85.2402 123.465 85.3281 125.381C86.418 125.293 87.499 125.188 88.5713 125.064C89.6436 124.941 90.7246 124.801 91.8145 124.643C91.9727 124.643 92.1133 124.634 92.2363 124.616C92.377 124.599 92.5176 124.59 92.6582 124.59C93.0273 124.59 93.2822 124.687 93.4229 124.88C93.5811 125.073 93.6602 125.346 93.6602 125.697C93.6602 125.943 93.6426 126.172 93.6074 126.383C93.5898 126.594 93.5371 126.805 93.4492 127.016C93.3262 127.367 93.124 127.622 92.8428 127.78C92.5615 127.938 92.2451 128.053 91.8936 128.123C91.542 128.176 91.1729 128.202 90.7861 128.202C90.417 128.202 90.0918 128.211 89.8105 128.229C89.0723 128.264 88.3428 128.29 87.6221 128.308C86.9189 128.325 86.207 128.352 85.4863 128.387C85.5039 128.756 85.5303 129.31 85.5654 130.048C85.6006 130.786 85.6357 131.621 85.6709 132.553C85.7236 133.467 85.7764 134.416 85.8291 135.4C85.8994 136.385 85.9697 137.316 86.04 138.195C86.1104 139.057 86.1895 139.812 86.2773 140.463C86.3652 141.113 86.4531 141.553 86.541 141.781C86.7344 142.15 86.9541 142.396 87.2002 142.52C87.4463 142.625 87.7715 142.678 88.1758 142.678C88.8262 142.678 89.5117 142.555 90.2324 142.309C90.9531 142.045 91.6562 141.72 92.3418 141.333C93.0273 140.929 93.6777 140.489 94.293 140.015C94.9258 139.54 95.4707 139.074 95.9277 138.617C96.1211 138.459 96.3145 138.301 96.5078 138.143C96.7012 137.967 96.9297 137.879 97.1934 137.879C97.457 137.879 97.7119 137.958 97.958 138.116C98.2041 138.274 98.4238 138.477 98.6172 138.723C98.8105 138.951 98.96 139.206 99.0654 139.487C99.1885 139.769 99.25 140.023 99.25 140.252ZM117.338 143.838C117.338 144.154 117.303 144.471 117.232 144.787C117.18 145.086 117.074 145.358 116.916 145.604C116.775 145.833 116.582 146.018 116.336 146.158C116.09 146.299 115.773 146.369 115.387 146.369C114.912 146.369 114.525 146.264 114.227 146.053C113.945 145.859 113.682 145.578 113.436 145.209C113.102 144.734 112.803 144.189 112.539 143.574C112.275 142.941 112.038 142.3 111.827 141.649C111.616 140.981 111.414 140.322 111.221 139.672C111.045 139.004 110.869 138.389 110.693 137.826C109.744 134.873 108.856 131.929 108.03 128.993C107.222 126.058 106.352 123.113 105.42 120.16C105.332 123.975 105.262 127.771 105.209 131.551C105.174 135.33 105.156 139.127 105.156 142.941C105.156 143.135 105.147 143.354 105.13 143.601C105.112 143.847 105.068 144.084 104.998 144.312C104.928 144.523 104.813 144.708 104.655 144.866C104.515 145.024 104.312 145.104 104.049 145.104C103.152 145.104 102.467 144.866 101.992 144.392C101.535 143.899 101.307 143.205 101.307 142.309C101.307 137.369 101.315 132.474 101.333 127.622C101.351 122.771 101.359 117.893 101.359 112.988V109.244C101.359 108.84 101.43 108.506 101.57 108.242C101.729 107.961 102.062 107.82 102.572 107.82C102.924 107.82 103.284 107.873 103.653 107.979C104.022 108.066 104.348 108.207 104.629 108.4C104.928 108.594 105.165 108.849 105.341 109.165C105.534 109.464 105.631 109.824 105.631 110.246C106.369 111.652 106.984 113.103 107.477 114.597C107.986 116.091 108.479 117.594 108.953 119.105C109.639 121.303 110.315 123.5 110.983 125.697C111.651 127.895 112.328 130.109 113.014 132.342C112.908 129.02 112.794 125.706 112.671 122.401C112.565 119.079 112.346 115.766 112.012 112.461C111.924 111.74 111.818 111.037 111.695 110.352C111.59 109.666 111.537 108.963 111.537 108.242C111.537 107.873 111.66 107.627 111.906 107.504C112.152 107.363 112.434 107.293 112.75 107.293C113.295 107.293 113.761 107.337 114.147 107.425C114.534 107.513 114.859 107.662 115.123 107.873C115.387 108.084 115.589 108.374 115.729 108.743C115.87 109.095 115.984 109.543 116.072 110.088C116.178 111.037 116.257 111.995 116.31 112.962C116.38 113.911 116.441 114.852 116.494 115.783C116.652 118.139 116.767 120.477 116.837 122.797C116.907 125.117 116.969 127.455 117.021 129.811C117.074 132.148 117.136 134.486 117.206 136.824C117.294 139.145 117.338 141.482 117.338 143.838ZM138.3 109.719C138.3 110.352 138.115 110.87 137.746 111.274C137.395 111.679 136.911 111.951 136.296 112.092C135.312 112.303 134.301 112.417 133.264 112.435C132.244 112.435 131.233 112.461 130.231 112.514V117.734C130.231 122.164 130.363 126.585 130.627 130.997C130.908 135.392 131.356 139.795 131.972 144.207C132.024 144.471 132.077 144.734 132.13 144.998C132.2 145.262 132.235 145.525 132.235 145.789C132.235 146.211 132.121 146.519 131.893 146.712C131.682 146.905 131.374 147.002 130.97 147.002C130.653 147.002 130.258 146.958 129.783 146.87C129.326 146.8 128.966 146.686 128.702 146.527C128.351 146.316 128.122 146.105 128.017 145.895C127.929 145.666 127.858 145.367 127.806 144.998C127.612 143.75 127.48 142.502 127.41 141.254C127.34 140.006 127.261 138.758 127.173 137.51C126.962 134.838 126.786 132.175 126.646 129.521C126.505 126.866 126.435 124.203 126.435 121.531C126.435 120.072 126.443 118.622 126.461 117.181C126.479 115.739 126.487 114.271 126.487 112.777C125.397 112.883 124.299 112.988 123.191 113.094C122.102 113.199 121.003 113.252 119.896 113.252C119.632 113.252 119.421 113.19 119.263 113.067C119.087 112.927 118.999 112.725 118.999 112.461C118.999 111.846 119.201 111.371 119.605 111.037C120.01 110.686 120.493 110.439 121.056 110.299C121.952 110.105 122.866 109.982 123.798 109.93C124.729 109.859 125.661 109.771 126.593 109.666C126.593 109.49 126.602 109.323 126.619 109.165C126.637 108.989 126.672 108.84 126.725 108.717C126.795 108.576 126.892 108.462 127.015 108.374C127.138 108.286 127.313 108.242 127.542 108.242C127.964 108.242 128.395 108.339 128.834 108.532C129.273 108.726 129.616 108.998 129.862 109.35L134.239 108.875C134.661 108.822 135.083 108.77 135.505 108.717C135.927 108.646 136.349 108.611 136.771 108.611C136.964 108.611 137.148 108.62 137.324 108.638C137.518 108.655 137.685 108.708 137.825 108.796C137.966 108.866 138.08 108.98 138.168 109.139C138.256 109.279 138.3 109.473 138.3 109.719ZM160.158 145.895C160.158 146.105 160.053 146.281 159.842 146.422C159.631 146.562 159.376 146.677 159.077 146.765C158.796 146.853 158.506 146.914 158.207 146.949C157.926 146.984 157.715 147.002 157.574 147.002C157.223 147.002 156.933 146.967 156.704 146.896C156.493 146.844 156.238 146.738 155.939 146.58C155.852 146.527 155.641 146.308 155.307 145.921C154.99 145.517 154.586 144.998 154.094 144.365C153.619 143.732 153.074 143.012 152.459 142.203C151.861 141.395 151.237 140.568 150.587 139.725C149.954 138.863 149.321 138.011 148.688 137.167C148.073 136.306 147.502 135.523 146.975 134.82C146.447 134.1 145.99 133.476 145.604 132.948C145.234 132.403 144.971 132.025 144.812 131.814L144.654 131.867C144.76 133.959 144.892 136.051 145.05 138.143C145.226 140.217 145.516 142.273 145.92 144.312C145.973 144.523 146.025 144.743 146.078 144.972C146.148 145.2 146.184 145.438 146.184 145.684C146.184 146.088 146.052 146.343 145.788 146.448C145.524 146.571 145.234 146.633 144.918 146.633C144.742 146.633 144.531 146.624 144.285 146.606C144.039 146.589 143.784 146.554 143.521 146.501C143.257 146.448 143.011 146.378 142.782 146.29C142.571 146.22 142.404 146.123 142.281 146C142.035 145.789 141.877 145.569 141.807 145.341C141.754 145.112 141.701 144.84 141.648 144.523C141.139 140.99 140.813 137.448 140.673 133.897C140.55 130.329 140.488 126.77 140.488 123.219C140.488 121.672 140.497 120.151 140.515 118.657C140.532 117.163 140.559 115.643 140.594 114.096C140.383 114.078 140.181 114.008 139.987 113.885C139.812 113.762 139.653 113.612 139.513 113.437C139.372 113.243 139.258 113.05 139.17 112.856C139.1 112.646 139.064 112.443 139.064 112.25C139.064 112.057 139.108 111.863 139.196 111.67C139.302 111.477 139.425 111.301 139.565 111.143C139.724 110.984 139.891 110.835 140.066 110.694C140.242 110.554 140.4 110.439 140.541 110.352V109.877C140.541 109.701 140.541 109.499 140.541 109.271C140.559 109.042 140.594 108.831 140.646 108.638C140.717 108.427 140.822 108.26 140.963 108.137C141.104 107.996 141.314 107.926 141.596 107.926C141.965 107.926 142.334 107.987 142.703 108.11C143.072 108.233 143.389 108.453 143.652 108.77C144.971 108.242 146.359 107.979 147.818 107.979C149.102 107.979 150.271 108.233 151.325 108.743C152.38 109.253 153.276 109.938 154.015 110.8C154.771 111.661 155.351 112.654 155.755 113.779C156.159 114.904 156.361 116.082 156.361 117.312C156.361 118.631 156.115 119.914 155.623 121.162C155.131 122.393 154.489 123.562 153.698 124.669C152.907 125.776 152.002 126.796 150.982 127.728C149.98 128.642 148.961 129.441 147.924 130.127C149.576 132.324 151.246 134.504 152.934 136.666C154.639 138.811 156.379 140.955 158.154 143.1C158.26 143.223 158.418 143.407 158.629 143.653C158.857 143.899 159.086 144.172 159.314 144.471C159.543 144.752 159.736 145.024 159.895 145.288C160.07 145.552 160.158 145.754 160.158 145.895ZM152.459 116.891C152.459 116.24 152.345 115.563 152.116 114.86C151.888 114.157 151.562 113.524 151.141 112.962C150.719 112.382 150.209 111.907 149.611 111.538C149.031 111.169 148.381 110.984 147.66 110.984C147.08 110.984 146.5 111.072 145.92 111.248C145.357 111.406 144.812 111.617 144.285 111.881C144.32 114.5 144.347 117.119 144.364 119.738C144.399 122.357 144.443 124.977 144.496 127.596L144.971 127.648C145.885 127.139 146.781 126.497 147.66 125.724C148.557 124.95 149.356 124.089 150.06 123.14C150.78 122.19 151.36 121.188 151.8 120.134C152.239 119.062 152.459 117.98 152.459 116.891ZM178.826 131.498C178.826 131.867 178.694 132.254 178.431 132.658C178.167 133.062 177.877 133.361 177.561 133.555C177.473 133.607 177.323 133.66 177.112 133.713C176.901 133.766 176.673 133.818 176.427 133.871C176.198 133.906 175.97 133.95 175.741 134.003C175.53 134.038 175.363 134.064 175.24 134.082L175.873 137.984C176.066 139.197 176.207 140.419 176.295 141.649C176.4 142.862 176.629 144.066 176.98 145.262C177.016 145.367 177.051 145.464 177.086 145.552C177.121 145.64 177.139 145.754 177.139 145.895C177.139 146.123 177.068 146.299 176.928 146.422C176.805 146.545 176.646 146.633 176.453 146.686C176.277 146.756 176.084 146.8 175.873 146.817C175.662 146.835 175.469 146.844 175.293 146.844H174.924C174.379 146.844 173.957 146.8 173.658 146.712C173.377 146.624 173.157 146.475 172.999 146.264C172.841 146.053 172.735 145.789 172.683 145.473C172.63 145.139 172.568 144.734 172.498 144.26C172.076 141.043 171.602 137.826 171.074 134.609C169.984 134.75 168.886 134.882 167.778 135.005C166.688 135.128 165.59 135.242 164.482 135.348L163.639 140.516C163.604 140.832 163.551 141.263 163.48 141.808C163.428 142.353 163.357 142.915 163.27 143.495C163.199 144.058 163.111 144.585 163.006 145.077C162.918 145.569 162.812 145.93 162.689 146.158C162.584 146.369 162.487 146.519 162.399 146.606C162.312 146.694 162.145 146.738 161.898 146.738C161.582 146.738 161.266 146.677 160.949 146.554C160.65 146.448 160.378 146.29 160.132 146.079C159.903 145.886 159.719 145.648 159.578 145.367C159.438 145.086 159.367 144.77 159.367 144.418C159.367 144.066 159.402 143.715 159.473 143.363C159.561 143.012 159.631 142.66 159.684 142.309C159.877 141.148 160.053 139.997 160.211 138.854C160.369 137.694 160.545 136.543 160.738 135.4C160.615 135.383 160.475 135.356 160.316 135.321C160.158 135.269 160 135.207 159.842 135.137C159.701 135.066 159.578 134.979 159.473 134.873C159.367 134.768 159.314 134.645 159.314 134.504C159.314 134.328 159.376 134.17 159.499 134.029C159.64 133.871 159.798 133.73 159.974 133.607C160.167 133.467 160.36 133.353 160.554 133.265C160.747 133.159 160.914 133.08 161.055 133.027C161.424 130.566 161.775 128.114 162.109 125.671C162.443 123.228 162.742 120.758 163.006 118.262C163.076 117.594 163.138 116.917 163.19 116.231C163.243 115.546 163.296 114.86 163.349 114.175C163.419 113.489 163.498 112.812 163.586 112.145C163.691 111.477 163.832 110.809 164.008 110.141C164.166 109.508 164.43 108.998 164.799 108.611C165.168 108.225 165.713 108.031 166.434 108.031C166.645 108.031 166.847 108.049 167.04 108.084C167.251 108.119 167.436 108.189 167.594 108.295C168.051 108.523 168.525 109.147 169.018 110.167C169.51 111.187 170.002 112.426 170.494 113.885C170.986 115.326 171.452 116.891 171.892 118.578C172.349 120.266 172.762 121.9 173.131 123.482C173.5 125.064 173.816 126.497 174.08 127.78C174.344 129.046 174.537 129.986 174.66 130.602C175.029 130.549 175.398 130.505 175.768 130.47C176.137 130.417 176.506 130.391 176.875 130.391C177.051 130.391 177.253 130.399 177.481 130.417C177.71 130.435 177.921 130.487 178.114 130.575C178.325 130.646 178.492 130.76 178.615 130.918C178.756 131.059 178.826 131.252 178.826 131.498ZM170.547 131.287C170.09 128.791 169.589 126.321 169.044 123.878C168.517 121.417 167.893 118.965 167.172 116.521C166.855 119.176 166.513 121.812 166.144 124.432C165.774 127.051 165.379 129.67 164.957 132.289C165.906 132.148 166.838 131.999 167.752 131.841C168.684 131.665 169.615 131.48 170.547 131.287ZM200.342 145.895C200.342 146.105 200.236 146.281 200.025 146.422C199.814 146.562 199.56 146.677 199.261 146.765C198.979 146.853 198.689 146.914 198.391 146.949C198.109 146.984 197.898 147.002 197.758 147.002C197.406 147.002 197.116 146.967 196.888 146.896C196.677 146.844 196.422 146.738 196.123 146.58C196.035 146.527 195.824 146.308 195.49 145.921C195.174 145.517 194.77 144.998 194.277 144.365C193.803 143.732 193.258 143.012 192.643 142.203C192.045 141.395 191.421 140.568 190.771 139.725C190.138 138.863 189.505 138.011 188.872 137.167C188.257 136.306 187.686 135.523 187.158 134.82C186.631 134.1 186.174 133.476 185.787 132.948C185.418 132.403 185.154 132.025 184.996 131.814L184.838 131.867C184.943 133.959 185.075 136.051 185.233 138.143C185.409 140.217 185.699 142.273 186.104 144.312C186.156 144.523 186.209 144.743 186.262 144.972C186.332 145.2 186.367 145.438 186.367 145.684C186.367 146.088 186.235 146.343 185.972 146.448C185.708 146.571 185.418 146.633 185.102 146.633C184.926 146.633 184.715 146.624 184.469 146.606C184.223 146.589 183.968 146.554 183.704 146.501C183.44 146.448 183.194 146.378 182.966 146.29C182.755 146.22 182.588 146.123 182.465 146C182.219 145.789 182.061 145.569 181.99 145.341C181.938 145.112 181.885 144.84 181.832 144.523C181.322 140.99 180.997 137.448 180.856 133.897C180.733 130.329 180.672 126.77 180.672 123.219C180.672 121.672 180.681 120.151 180.698 118.657C180.716 117.163 180.742 115.643 180.777 114.096C180.566 114.078 180.364 114.008 180.171 113.885C179.995 113.762 179.837 113.612 179.696 113.437C179.556 113.243 179.441 113.05 179.354 112.856C179.283 112.646 179.248 112.443 179.248 112.25C179.248 112.057 179.292 111.863 179.38 111.67C179.485 111.477 179.608 111.301 179.749 111.143C179.907 110.984 180.074 110.835 180.25 110.694C180.426 110.554 180.584 110.439 180.725 110.352V109.877C180.725 109.701 180.725 109.499 180.725 109.271C180.742 109.042 180.777 108.831 180.83 108.638C180.9 108.427 181.006 108.26 181.146 108.137C181.287 107.996 181.498 107.926 181.779 107.926C182.148 107.926 182.518 107.987 182.887 108.11C183.256 108.233 183.572 108.453 183.836 108.77C185.154 108.242 186.543 107.979 188.002 107.979C189.285 107.979 190.454 108.233 191.509 108.743C192.563 109.253 193.46 109.938 194.198 110.8C194.954 111.661 195.534 112.654 195.938 113.779C196.343 114.904 196.545 116.082 196.545 117.312C196.545 118.631 196.299 119.914 195.807 121.162C195.314 122.393 194.673 123.562 193.882 124.669C193.091 125.776 192.186 126.796 191.166 127.728C190.164 128.642 189.145 129.441 188.107 130.127C189.76 132.324 191.43 134.504 193.117 136.666C194.822 138.811 196.562 140.955 198.338 143.1C198.443 143.223 198.602 143.407 198.812 143.653C199.041 143.899 199.27 144.172 199.498 144.471C199.727 144.752 199.92 145.024 200.078 145.288C200.254 145.552 200.342 145.754 200.342 145.895ZM192.643 116.891C192.643 116.24 192.528 115.563 192.3 114.86C192.071 114.157 191.746 113.524 191.324 112.962C190.902 112.382 190.393 111.907 189.795 111.538C189.215 111.169 188.564 110.984 187.844 110.984C187.264 110.984 186.684 111.072 186.104 111.248C185.541 111.406 184.996 111.617 184.469 111.881C184.504 114.5 184.53 117.119 184.548 119.738C184.583 122.357 184.627 124.977 184.68 127.596L185.154 127.648C186.068 127.139 186.965 126.497 187.844 125.724C188.74 124.95 189.54 124.089 190.243 123.14C190.964 122.19 191.544 121.188 191.983 120.134C192.423 119.062 192.643 117.98 192.643 116.891Z" fill="white"/>
<path d="M127.717 67.95H155.283V67.2583C155.283 64.8278 154.061 62.9472 151.617 61.6167C149.172 60.2861 145.8 59.6194 141.5 59.6167C137.194 59.6167 133.821 60.2833 131.379 61.6167C128.937 62.95 127.717 64.8306 127.717 67.2583V67.95ZM141.5 52.8833C143.258 52.8833 144.739 52.2819 145.942 51.0792C147.147 49.8736 147.75 48.3917 147.75 46.6333C147.75 44.8778 147.147 43.3972 145.942 42.1917C144.739 40.9861 143.258 40.3833 141.5 40.3833C139.742 40.3833 138.261 40.9861 137.058 42.1917C135.853 43.3972 135.25 44.8778 135.25 46.6333C135.25 48.3917 135.853 49.8736 137.058 51.0792C138.261 52.2819 139.742 52.8833 141.5 52.8833ZM129 91.6667V83.3333H110.729C108.812 83.3333 107.213 82.6917 105.929 81.4083C104.643 80.1222 104 78.5208 104 76.6042V31.7292C104 29.8125 104.643 28.2125 105.929 26.9292C107.213 25.6431 108.812 25 110.729 25H172.271C174.187 25 175.788 25.6431 177.071 26.9292C178.357 28.2125 179 29.8125 179 31.7292V76.6042C179 78.5208 178.358 80.1208 177.075 81.4042C175.789 82.6903 174.187 83.3333 172.271 83.3333H154V91.6667H129Z" fill="white"/>
</svg>
